<svg xmlns="http://www.w3.org/2000/svg" width="25.449" height="25.449" viewBox="0 0 25.449 25.449"><path d="M23.212,0H2.237A2.239,2.239,0,0,0,0,2.237V23.262a2.189,2.189,0,0,0,2.237,2.187H23.212a2.189,2.189,0,0,0,2.237-2.187V2.237A2.239,2.239,0,0,0,23.212,0Zm.746,23.262a.706.706,0,0,1-.746.7H2.237a.706.706,0,0,1-.746-.7V2.237a.746.746,0,0,1,.746-.746H23.212a.746.746,0,0,1,.746.746Z" fill="#040417"/><path d="M292.22,121a.691.691,0,0,0-.691.691v3.691a4.146,4.146,0,1,0,.133,7.772.69.69,0,0,0,1.25-.406V121.691A.691.691,0,0,0,292.22,121Zm-.691,10.688a2.764,2.764,0,1,1,0-4.79Z" transform="translate(-271.83 -113.823)" fill="#040417"/><path d="M96.584,128l3.632-5.812a.778.778,0,0,0-1.32-.825l-3.23,5.169-3.23-5.169a.778.778,0,0,0-1.319.825L94.749,128l-3.632,5.812a.778.778,0,1,0,1.319.825l3.23-5.169,3.23,5.169a.778.778,0,1,0,1.32-.825Z" transform="translate(-86.363 -115.473)" fill="#040417"/></svg>