<svg xmlns="http://www.w3.org/2000/svg" width="26" height="24.96" viewBox="0 0 26 24.96"><path d="M13,.5A12.9,12.9,0,0,0,0,13.3,12.816,12.816,0,0,0,8.889,25.438c.65.12.888-.276.888-.615,0-.3-.011-1.109-.016-2.176-3.616.772-4.379-1.717-4.379-1.717a3.409,3.409,0,0,0-1.446-1.872c-1.178-.793.091-.777.091-.777A2.72,2.72,0,0,1,6.018,19.6,2.8,2.8,0,0,0,9.8,20.664a2.711,2.711,0,0,1,.823-1.711C7.736,18.633,4.7,17.532,4.7,12.63A4.894,4.894,0,0,1,6.044,9.2a4.484,4.484,0,0,1,.114-3.387S7.247,5.47,9.733,7.125a12.444,12.444,0,0,1,6.5,0c2.47-1.655,3.559-1.312,3.559-1.312a4.608,4.608,0,0,1,.13,3.387,4.913,4.913,0,0,1,1.333,3.434c0,4.916-3.039,6-5.931,6.313A3.039,3.039,0,0,1,16.2,21.31c0,1.712-.016,3.088-.016,3.5,0,.335.228.736.894.608A12.777,12.777,0,0,0,26,13.3,12.9,12.9,0,0,0,13,.5Z" transform="translate(0 -0.5)" fill="#040417"/></svg>