<svg xmlns="http://www.w3.org/2000/svg" width="25" height="25" viewBox="0 0 25 25"><path d="M5.588,4A1.6,1.6,0,0,0,4,5.588V27.412A1.6,1.6,0,0,0,5.588,29H27.412A1.6,1.6,0,0,0,29,27.412V5.588A1.6,1.6,0,0,0,27.412,4Zm0,1.19H27.412a.4.4,0,0,1,.4.4V27.412a.4.4,0,0,1-.4.4H5.588a.4.4,0,0,1-.4-.4V5.588a.4.4,0,0,1,.4-.4ZM15.31,15.31V22.8c0,1.149-.435,1.444-1.19,1.444a1.955,1.955,0,0,1-1.7-1.132l-1.869,1.132a4.179,4.179,0,0,0,3.711,2.381,3.121,3.121,0,0,0,3.432-3.462V15.31Zm7.413,0a3.037,3.037,0,0,0-3.327,3c0,1.848,1.09,2.723,2.73,3.42l.567.244c1.035.453,1.546.73,1.546,1.509,0,.649-.493,1.118-1.435,1.118-1.121,0-1.651-.76-2.137-1.556l-1.786,1.19a4.146,4.146,0,0,0,3.974,2.381c2.158,0,3.764-1.121,3.764-3.165,0-1.9-1.088-2.741-3.02-3.569l-.567-.242c-.974-.423-1.4-.7-1.4-1.379a.99.99,0,0,1,1.088-.974,1.543,1.543,0,0,1,1.46.974l1.769-1.135a3.352,3.352,0,0,0-3.227-1.816Z" transform="translate(-4 -4)" fill="#040417"/></svg>