<svg xmlns="http://www.w3.org/2000/svg" width="26.388" height="27.587" viewBox="0 0 26.388 27.587"><g transform="translate(-10.667 0)"><path d="M104.4,0C100.325,0,96,1.261,96,3.6V14.393c0,2.363,4.223,3.6,8.4,3.6s8.4-1.235,8.4-3.6V3.6C112.792,1.261,108.467,0,104.4,0Zm7.2,14.393c0,1.135-2.955,2.4-7.2,2.4s-7.2-1.264-7.2-2.4V12.712c1.568,1.1,4.438,1.682,7.2,1.682s5.629-.581,7.2-1.682Zm0-3.6c0,1-2.738,2.4-7.2,2.4s-7.2-1.4-7.2-2.4V9.113c1.568,1.1,4.438,1.682,7.2,1.682s5.629-.581,7.2-1.682Zm0-3.6c0,1-2.738,2.4-7.2,2.4s-7.2-1.4-7.2-2.4V5.515c1.568,1.1,4.438,1.682,7.2,1.682s5.629-.581,7.2-1.682ZM104.4,6c-4.458,0-7.2-1.4-7.2-2.4s2.738-2.4,7.2-2.4,7.2,1.4,7.2,2.4S108.854,6,104.4,6Z" transform="translate(-80.535 0)" fill="#040417"/><path d="M205.233,343.734l-.177-.03c-1.052-.172-1.209-.445-1.209-.593,0-.239.479-.6,1.2-.6s1.177.337,1.2.579a.589.589,0,0,0,.654.54.6.6,0,0,0,.54-.654,2.2,2.2,0,0,0-2.4-1.666c-1.346,0-2.4.79-2.4,1.8,0,.939.745,1.536,2.215,1.776l.1-.591.08.621c1,.164,1.205.414,1.205.594,0,.239-.479.6-1.2.6s-1.177-.338-1.2-.581a.591.591,0,0,0-.654-.54.6.6,0,0,0-.54.654,2.2,2.2,0,0,0,2.4,1.666c1.346,0,2.4-.79,2.4-1.8C207.445,344.572,206.7,343.975,205.233,343.734Z" transform="translate(-181.185 -322.121)" fill="#040417"/><path d="M314.132,343.132a1.8,1.8,0,0,0-1.8-1.8h-1.2a1.8,1.8,0,0,0-1.8,1.8v2.4a1.8,1.8,0,0,0,1.8,1.8h1.2a1.781,1.781,0,0,0,.77-.18l0,0a.6.6,0,1,0,.848-.848l0,0a1.771,1.771,0,0,0,.181-.771Zm-1.2,2.152-.176-.176a.6.6,0,1,0-.848.848l.175.175h-.95a.6.6,0,0,1-.6-.6v-2.4a.6.6,0,0,1,.6-.6h1.2a.6.6,0,0,1,.6.6Z" transform="translate(-281.875 -322.142)" fill="#040417"/><path d="M419,346.131h-1.8v-4.2a.6.6,0,1,0-1.2,0v4.8a.6.6,0,0,0,.6.6H419a.6.6,0,1,0,0-1.2Z" transform="translate(-382.543 -322.142)" fill="#040417"/><path d="M120.579,384.05a.6.6,0,0,0-.8.269l-.663,1.328-.663-1.327a.6.6,0,0,0-1.074.536l1.066,2.131-1.065,2.129a.6.6,0,1,0,1.073.536l2.4-4.8A.6.6,0,0,0,120.579,384.05Z" transform="translate(-100.648 -362.398)" fill="#040417"/><path d="M15.055,341.362a.6.6,0,0,0-.669.209l-1.319,1.758-1.319-1.758a.6.6,0,0,0-1.079.36v4.8a.6.6,0,1,0,1.2,0v-3l.72.96a.621.621,0,0,0,.96,0l.72-.96v3a.6.6,0,1,0,1.2,0v-4.8A.6.6,0,0,0,15.055,341.362Z" transform="translate(0 -322.14)" fill="#040417"/></g></svg>