<svg xmlns="http://www.w3.org/2000/svg" xmlns:xlink="http://www.w3.org/1999/xlink" width="26" height="26" viewBox="0 0 26 26">
  <defs>
    <clipPath id="clip-sass">
      <rect width="26" height="26"/>
    </clipPath>
  </defs>
  <g id="sass" clip-path="url(#clip-sass)">
    <g id="sass-2" data-name="sass">
      <path id="Tracé_304" data-name="Tracé 304" d="M26,13q0,.6-.054,1.191-.041.466-.117.92A13.009,13.009,0,1,1,26,13Z" fill="none"/>
      <path id="Tracé_305" data-name="Tracé 305" d="M45.382,57.053c-.394.149-.378.152-.587-.228a3.3,3.3,0,0,1-.42-1.546,3.584,3.584,0,0,1,.283-1.349c.131-.344-.039-.466-.337-.5a3.25,3.25,0,0,0-.658,0c-.566.058-.621.107-.772.656a5.592,5.592,0,0,1-.308.964c-.365.761-.78,1.495-1.206,2.223a1.905,1.905,0,0,1-.247.384,2.882,2.882,0,0,1-.45-1.506,3.821,3.821,0,0,1,.314-1.5.237.237,0,0,0-.131-.335.568.568,0,0,0-.2-.066,3.065,3.065,0,0,0-1.079.075.375.375,0,0,0-.3.312,4.762,4.762,0,0,1-.322,1.016q-.6,1.358-1.207,2.718c-.35.787-.7,1.576-1.11,2.332-.029.054-.054.146-.127.128s-.048-.11-.051-.172a4.474,4.474,0,0,1,.2-1.3c.164-.673.343-1.344.517-2.015a.344.344,0,0,0-.194-.414.589.589,0,0,0-.707.047,4.331,4.331,0,0,0,.037-.755.908.908,0,0,0-.707-.965,1.455,1.455,0,0,0-.9.167,4.527,4.527,0,0,0-1.632,1.351.591.591,0,0,1-.18.168q-1.252.682-2.5,1.368a.152.152,0,0,1-.216-.034,11.632,11.632,0,0,0-1.388-1.2,15.4,15.4,0,0,1-1.951-1.66,3.208,3.208,0,0,1-.765-1.27,2.911,2.911,0,0,1,.327-2.263,6.727,6.727,0,0,1,1.877-2.069,18.092,18.092,0,0,1,3.851-2.247,10.871,10.871,0,0,1,4.815-1.038,4.241,4.241,0,0,1,1.919.471,1.424,1.424,0,0,1,.782,1.061,2.6,2.6,0,0,1-.3,1.616A6.262,6.262,0,0,1,36.8,52.24a8.5,8.5,0,0,1-2.884,1.026,5.325,5.325,0,0,1-1.7.067,2.627,2.627,0,0,1-1.7-.843.159.159,0,0,0-.2-.06c-.09.044-.083.123-.074.2a.691.691,0,0,0,.039.155,1.832,1.832,0,0,0,.6.777,3.65,3.65,0,0,0,2.333.732,9.671,9.671,0,0,0,2.451-.282,7.417,7.417,0,0,0,4.459-2.858,4.886,4.886,0,0,0,1.05-3.076,2.692,2.692,0,0,0-.8-1.9A4.5,4.5,0,0,0,38.1,45.05a8.424,8.424,0,0,0-2.849-.124,11.757,11.757,0,0,0-2.444.544,21.806,21.806,0,0,0-3.511,1.558,15.058,15.058,0,0,0-3.185,2.291,7.583,7.583,0,0,0-1.972,2.821,2.587,2.587,0,0,0-.183,1.481,4.18,4.18,0,0,0,.906,1.755,11.753,11.753,0,0,0,2.27,1.992c.661.474,1.352.906,1.987,1.416.18.144.179.144-.033.255-.247.129-.5.253-.74.391a10.82,10.82,0,0,0-2.7,1.989,3.708,3.708,0,0,0-.967,1.433s-.349,1.391.207,2.025,2.224.465,2.224.465a4.468,4.468,0,0,0,4.014-4.1,4.665,4.665,0,0,0-.189-1.845c-.032-.106-.153-.212-.106-.305s.177-.129.274-.186c.394-.229.788-.454,1.194-.687a.348.348,0,0,1-.031.193,5.6,5.6,0,0,0-.218,2.6,3.618,3.618,0,0,0,.641,1.528.983.983,0,0,0,1.483-.013A7.076,7.076,0,0,0,34.9,61.2c.117-.25.224-.505.335-.758a8.453,8.453,0,0,0-.008.9,1.746,1.746,0,0,0,.21.838.611.611,0,0,0,.845.235,1.875,1.875,0,0,0,.744-.774,36.024,36.024,0,0,0,2.061-4.144c.125-.3.254-.608.4-.946.022.111.036.179.049.247a6.468,6.468,0,0,0,.7,1.934.274.274,0,0,1-.027.344c-.31.422-.649.819-.984,1.22a10.5,10.5,0,0,0-.82,1.032.457.457,0,0,0,.264.752,1.517,1.517,0,0,0,.336.029,3.542,3.542,0,0,0,1.726-.5,1.993,1.993,0,0,0,1.124-1.862,2.948,2.948,0,0,0-.271-1.117.189.189,0,0,1,.015-.211,20.681,20.681,0,0,0,1.34-2.227,1.937,1.937,0,0,1,.238-.418c.015.054.028.087.034.122a6.022,6.022,0,0,0,.626,1.827c.089.155.045.235-.079.339a4.871,4.871,0,0,0-1.062,1.262,2.378,2.378,0,0,0-.367,1.214.649.649,0,0,0,.851.661,3.787,3.787,0,0,0,1.369-.623,1.919,1.919,0,0,0,.881-2.322c-.11-.382-.108-.375.274-.491a5.569,5.569,0,0,1,2.539-.124q.145.024.287.055.075-.454.117-.92A5.411,5.411,0,0,0,45.382,57.053ZM27.7,63.88a1.812,1.812,0,0,1-.752.1.579.579,0,0,1-.545-.593,2.131,2.131,0,0,1,.265-1.092,4.464,4.464,0,0,1,1.373-1.468,15.77,15.77,0,0,1,1.645-1.089c.171-.1.174-.1.213.1a3.023,3.023,0,0,1,.08.763A3.526,3.526,0,0,1,27.7,63.88Zm7.788-7.205a8.808,8.808,0,0,1-.5,1.743c-.285.774-.564,1.551-.923,2.295a1.8,1.8,0,0,1-.3.481c-.126.132-.237.117-.324-.045a2.3,2.3,0,0,1-.176-.921,5.3,5.3,0,0,1,1.143-3.261,1.43,1.43,0,0,1,.783-.56C35.421,56.35,35.525,56.441,35.49,56.674Zm4.945,3.783a2.383,2.383,0,0,1-1.018.939c-.046.023-.1.063-.146.01s.024-.084.053-.116c.425-.464.845-.932,1.223-1.436.006-.008.02-.009.053-.023A1.252,1.252,0,0,1,40.435,60.457Zm2.935-.018c-.063.03-.136.085-.2.038s-.041-.145-.02-.216a3.8,3.8,0,0,1,.406-.924,3.417,3.417,0,0,1,.543-.655c.083-.08.12-.07.148.045a1.557,1.557,0,0,1,.034.354A1.43,1.43,0,0,1,43.37,60.439Z" transform="translate(-22.695 -42.582)" fill="#040417"/>
    </g>
  </g>
</svg>
