<svg xmlns="http://www.w3.org/2000/svg" xmlns:xlink="http://www.w3.org/1999/xlink" width="512" height="512" viewBox="0 0 512 512">
  <defs>
    <clipPath id="clip-alien-w">
      <rect width="512" height="512"/>
    </clipPath>
  </defs>
  <g id="alien-w" clip-path="url(#clip-alien-w)">
    <g id="alien" transform="translate(0 0)">
      <path id="Tracé_5" data-name="Tracé 5" d="M484.8,165.33C457.845,73.308,351.086-.1,256,0a167.505,167.505,0,0,0-32.039,3.47C123.659,23.339,19.914,106.479,20,216c.05,64.136,26.1,125.936,64,176.794,35.206,47.24,89.718,102.268,149,116.308a98.834,98.834,0,0,0,23,2.9c22.68-.07,48.3-9.12,76.14-26.891,26.02-16.67,52.16-40.109,75.59-67.779a401.523,401.523,0,0,0,25.861-33.38c13.494-19.789,25.468-41.8,25.349-43.24-.22-2.66-11.41,7.18-13.45,5.46-1.81-1.53-2.01-14.55-4.37-14.55-1.472,0-10.585,17.723-22.237,35.783-11.464,17.769-25.466,35.879-26.423,37.007-22.15,26.18-46.74,48.27-71.11,63.859C297.56,483.569,274.44,492,256.25,492h-.5c-18.3,0-41.57-8.521-65.51-23.99-37.46-24.07-74.89-63.12-102.69-107.16C56.84,312.35,39.96,260.9,40,216a160.273,160.273,0,0,1,23.87-84.3c19.92-32.771,53.31-62.41,94.02-83.471C191.4,30.82,228.89,20,255.71,20h.44c16.92,0,39.43,4.56,61.77,12.51C358.13,46.75,395.1,70.02,422,98.05c33.15,34.55,49.97,74.24,50,117.95.02,36.02-10.66,76-30.88,115.62a10,10,0,0,0,4.37,13.449,9.836,9.836,0,0,0,4.53,1.1,9.98,9.98,0,0,0,8.92-5.46,325.484,325.484,0,0,0,24.07-61.32A240.624,240.624,0,0,0,492,216a179.816,179.816,0,0,0-7.2-50.67Z" fill="#fff"/>
      <path id="Tracé_6" data-name="Tracé 6" d="M227.648,415.351c9.154,5.375,25.4,6.26,38.152,6.26a117.6,117.6,0,0,0,38.152-6.26C317.7,410,337.246,367.03,335.58,359.3s-35.961,28.634-40.251,30.473c-4.6,3.371-14.36,9.236-29.529,9.42-10.646.13-23.483-4.211-31.45-9.42-4.29-3.677-33.879-35-35.545-27.272S217.8,412.146,227.648,415.351Z" transform="translate(523.003 782.614) rotate(180)" fill="#fff"/>
      <path id="Tracé_7" data-name="Tracé 7" d="M225.386,286.551c.293-2.641,6.771-65.071-29.046-100.891S98.091,156.318,95.45,156.615a10,10,0,0,0-8.834,8.834c-.293,2.641-6.771,65.071,29.047,100.891,25.9,25.9,65.7,29.683,86.768,29.683a136.992,136.992,0,0,0,14.122-.638,10,10,0,0,0,8.833-8.834Zm-19.438-10.605c-16.626.348-54-1.605-76.144-23.749s-24.09-59.526-23.75-76.144c16.626-.34,54,1.6,76.145,23.749S206.287,259.329,205.948,275.946Z" fill="#fff"/>
      <path id="Tracé_8" data-name="Tracé 8" d="M396.34,266.34c35.818-35.819,29.34-98.25,29.046-100.891a10,10,0,0,0-8.834-8.834c-2.641-.3-65.073-6.773-100.89,29.045s-29.34,98.25-29.046,100.891a10,10,0,0,0,8.834,8.834,136.906,136.906,0,0,0,14.122.638c21.064,0,60.872-3.789,86.768-29.683Zm-90.287,9.607c-.339-16.628,1.606-54,23.75-76.145s59.522-24.088,76.144-23.75c.339,16.628-1.606,54-23.75,76.145S322.674,276.28,306.053,275.947Z" fill="#fff"/>
    </g>
  </g>
</svg>
