<svg xmlns="http://www.w3.org/2000/svg" xmlns:xlink="http://www.w3.org/1999/xlink" width="512" height="512" viewBox="0 0 512 512">
  <defs>
    <clipPath id="clip-like">
      <rect width="512" height="512"/>
    </clipPath>
  </defs>
  <g id="like" clip-path="url(#clip-like)">
    <g id="like-2" data-name="like" transform="translate(0 0.164)">
      <g id="Groupe_1" data-name="Groupe 1">
        <path id="Tracé_1" data-name="Tracé 1" d="M474.644,74.27A129.738,129.738,0,0,0,376,29.836c-53.948,0-88.1,32.22-107.255,59.25A196.312,196.312,0,0,0,256,109.751a196.146,196.146,0,0,0-12.745-20.665C224.1,62.056,189.948,29.836,136,29.836A129.743,129.743,0,0,0,37.355,74.271C13.267,101.605,0,138.213,0,177.351c0,42.6,16.633,82.228,52.345,124.7,31.917,37.96,77.834,77.088,131.005,122.4,19.813,16.884,40.3,34.344,62.115,53.429l.655.574a15,15,0,0,0,19.76,0l.655-.574c21.813-19.085,42.3-36.544,62.118-53.431,53.168-45.306,99.085-84.434,131-122.395,35.712-42.473,52.345-82.1,52.345-124.7C512,138.213,498.733,101.605,474.644,74.27ZM309.193,401.614c-17.08,14.554-34.658,29.533-53.193,45.646-18.534-16.111-36.113-31.091-53.2-45.648C98.745,312.939,30,254.358,30,177.351c0-31.83,10.6-61.394,29.862-83.245A100.13,100.13,0,0,1,136,59.836c41.129,0,67.716,25.338,82.776,46.594a177.839,177.839,0,0,1,22.962,45.659,15,15,0,0,0,28.524,0,177.856,177.856,0,0,1,22.962-45.66C308.284,85.174,334.871,59.836,376,59.836a100.127,100.127,0,0,1,76.137,34.27C471.395,115.957,482,145.521,482,177.351,482,254.358,413.255,312.939,309.193,401.614Z" fill="#040417"/>
      </g>
    </g>
  </g>
</svg>
