<svg xmlns="http://www.w3.org/2000/svg" xmlns:xlink="http://www.w3.org/1999/xlink" width="26" height="25.896" viewBox="0 0 26 25.896"><defs><clipPath id="b"><rect width="26" height="25.896"/></clipPath></defs><g id="a" clip-path="url(#b)"><g transform="translate(0 -0.328)"><path d="M197.149,123.753c.273-.273.56-.542.854-.8l-.556-.633c-.307.27-.608.552-.894.837a18.644,18.644,0,0,0-2.733,3.473l.72.439a17.786,17.786,0,0,1,2.609-3.316Zm0,0" transform="translate(-183.612 -115.568)" fill="#040417"/><path d="M177.327,220.939l-.742-.4q-.229.425-.436.862l.762.36Q177.108,221.344,177.327,220.939Zm0,0" transform="translate(-166.871 -208.613)" fill="#040417"/><path d="M104.641.328l-2.6.512a20.334,20.334,0,0,0-12.13,7.544,6.249,6.249,0,0,0-5.467,3.592l-.1.254,2.206,2.206-.536,1.149.415.415-.843,1.685,2.958,2.958,1.685-.843.415.415L91.8,19.68,94,21.885l.254-.1a6.25,6.25,0,0,0,3.592-5.467,20.406,20.406,0,0,0,1.986-1.743,20.261,20.261,0,0,0,5.559-10.387l.5-2.517.008-.083A1.266,1.266,0,0,0,104.641.328Zm-19.3,11.707a5.408,5.408,0,0,1,3.889-2.709,20.287,20.287,0,0,0-1.625,2.85l-.676,1.448Zm3.37,7.583-2.1-2.1.445-.891L89.6,19.173ZM94.2,20.889,92.608,19.3l1.448-.676A20.264,20.264,0,0,0,96.907,17,5.407,5.407,0,0,1,94.2,20.889Zm5.041-6.907A19.431,19.431,0,0,1,93.7,17.861L90.825,19.2l-3.8-3.8,1.342-2.875a19.478,19.478,0,0,1,12.323-10.5L104.2,5.538a19.406,19.406,0,0,1-4.961,8.444Zm5.329-9.956c-.038.189-.08.377-.124.565l-2.8-2.8c.187-.043.375-.086.565-.124l2.469-.494a.422.422,0,0,1,.385.386Zm0,0" transform="translate(-79.905)" fill="#040417"/><path d="M162.883,201.716l1.8,1.8,5.29-4.328-2.765-2.765Zm5.839-2.588-3.979,3.256-.725-.725,3.256-3.979Zm0,0" transform="translate(-154.304 -185.77)" fill="#040417"/><path d="M289.031,80.328A3.371,3.371,0,1,0,292.4,83.7,3.375,3.375,0,0,0,289.031,80.328Zm0,5.9a2.528,2.528,0,1,1,2.528-2.528A2.531,2.531,0,0,1,289.031,86.227Zm0,0" transform="translate(-270.615 -75.787)" fill="#040417"/><path d="M319.345,112.328a1.685,1.685,0,1,0,1.685,1.685A1.687,1.687,0,0,0,319.345,112.328Zm0,2.528a.843.843,0,1,1,.843-.843A.844.844,0,0,1,319.345,114.856Zm0,0" transform="translate(-300.93 -106.102)" fill="#040417"/><path d="M0,467.514l.842-.842.6.6L.6,468.11Zm0,0" transform="translate(0 -441.783)" fill="#040417"/><path d="M24,367.724l5.056-5.056.6.6L24.6,368.32Zm0,0" transform="translate(-22.736 -343.257)" fill="#040417"/><path d="M64,443.514l.842-.842.6.6-.842.843Zm0,0" transform="translate(-60.629 -419.047)" fill="#040417"/><path d="M88,389.2l2.528-2.528.6.6L88.592,389.8Zm0,0" transform="translate(-83.362 -366)" fill="#040417"/><path d="M24,403.514l.842-.842.6.6-.843.843Zm0,0" transform="translate(-22.736 -381.154)" fill="#040417"/><path d="M48,349.2l2.528-2.528.6.6L48.592,349.8Zm0,0" transform="translate(-45.468 -328.107)" fill="#040417"/><path d="M24,260.353l1.685-1.685.6.6L24.6,260.949Zm0,0" transform="translate(-22.74 -244.734)" fill="#040417"/><path d="M0,299.514l.843-.842.6.6L.6,300.11Zm0,0" transform="translate(0 -282.631)" fill="#040417"/><path d="M224,428.353l1.685-1.685.6.6-1.685,1.685Zm0,0" transform="translate(-212.202 -403.886)" fill="#040417"/><path d="M200,467.514l.842-.842.6.6-.842.843Zm0,0" transform="translate(-189.466 -441.783)" fill="#040417"/></g></g></svg>