<?xml version="1.0" standalone="no"?>
<!DOCTYPE svg PUBLIC "-//W3C//DTD SVG 20010904//EN"
 "http://www.w3.org/TR/2001/REC-SVG-20010904/DTD/svg10.dtd">
<svg version="1.0" xmlns="http://www.w3.org/2000/svg"
 width="700.000000pt" height="700.000000pt" viewBox="0 0 700.000000 700.000000"
 preserveAspectRatio="xMidYMid meet">
<metadata>
Created by potrace 1.11, written by Peter Selinger 2001-2013
</metadata>
<g transform="translate(0.000000,700.000000) scale(0.100000,-0.100000)"
fill="#000000" stroke="none">
<path d="M3638 6515 c-1 -1 -41 -6 -88 -9 -47 -4 -94 -9 -105 -11 -11 -2 -42
-7 -70 -10 -27 -3 -69 -10 -93 -16 -23 -5 -59 -12 -80 -15 -20 -3 -89 -19
-152 -35 -391 -101 -706 -251 -998 -476 -221 -170 -423 -384 -584 -618 -39
-56 -61 -79 -74 -78 -11 1 -37 4 -59 6 -48 5 -150 -15 -196 -38 -278 -141
-291 -534 -23 -691 193 -113 450 -34 544 168 65 139 50 297 -39 408 l-28 36
50 74 c123 185 332 413 491 535 22 17 51 39 65 51 23 18 142 98 196 131 168
103 364 190 566 252 112 34 340 86 419 96 30 3 62 8 70 10 78 20 603 28 720
12 30 -4 73 -10 95 -13 22 -3 78 -12 125 -20 81 -15 96 -18 147 -28 87 -18
353 -98 428 -131 17 -7 71 -30 120 -51 563 -241 1054 -664 1382 -1190 125
-199 235 -431 303 -637 33 -100 64 -146 100 -148 11 -1 26 -2 33 -3 39 -6 97
54 97 102 0 57 -133 390 -228 572 -189 361 -473 721 -757 961 -22 19 -46 40
-54 47 -74 71 -343 255 -497 341 -371 207 -820 354 -1214 396 -30 3 -68 8 -85
11 -32 6 -521 14 -527 9z m-2268 -1480 c46 -14 82 -48 105 -97 48 -103 -7
-219 -117 -249 -84 -22 -169 16 -207 93 -71 147 63 302 219 253z"/>
<path d="M1070 6363 c-27 -7 -53 -55 -58 -103 l-4 -47 -51 -7 c-89 -10 -135
-84 -97 -156 15 -28 63 -50 110 -50 l40 0 0 -40 c0 -55 24 -99 65 -115 77 -33
145 21 145 115 0 40 0 40 39 40 79 0 120 35 123 102 2 63 -50 108 -125 106
-35 -1 -36 0 -38 47 -5 88 -66 132 -149 108z"/>
<path d="M5303 5700 c-33 -13 -57 -57 -57 -106 -1 -24 -3 -44 -6 -45 -3 0 -25
-2 -49 -3 -81 -6 -124 -62 -103 -133 14 -47 42 -66 106 -73 l50 -5 2 -44 c2
-55 19 -86 57 -104 72 -35 138 8 147 95 l5 53 52 5 c87 9 129 71 98 146 -14
33 -66 67 -98 63 -46 -6 -54 0 -55 47 -4 89 -70 136 -149 104z"/>
<path d="M3608 5545 c-2 -2 -39 -6 -83 -9 -87 -7 -101 -9 -220 -32 -333 -65
-656 -218 -893 -424 -203 -176 -371 -415 -472 -668 -41 -104 -93 -298 -104
-388 -4 -27 -9 -65 -11 -84 -6 -43 -6 -303 -1 -350 33 -264 116 -508 240 -705
55 -87 59 -93 125 -169 197 -231 472 -393 781 -460 290 -63 604 -26 885 105
396 184 656 594 656 1035 0 61 -2 126 -5 145 -16 95 -21 117 -40 183 -119 408
-468 685 -883 700 -164 6 -389 -49 -450 -110 -50 -49 -42 -122 17 -157 38 -23
54 -22 146 12 359 131 751 -25 914 -364 105 -218 123 -436 54 -671 -122 -424
-518 -698 -1004 -698 -100 1 -199 10 -255 25 -22 6 -49 13 -59 15 -86 16 -241
86 -354 160 -106 69 -260 221 -329 324 -122 184 -201 406 -230 650 -8 69 -8
258 1 325 12 99 13 107 30 178 122 520 489 926 1004 1111 81 29 245 73 307 81
22 4 47 8 55 10 98 26 431 26 600 0 82 -13 289 -69 373 -101 240 -92 441 -217
656 -409 65 -58 216 -241 283 -344 l67 -104 -54 -59 c-80 -87 -109 -160 -107
-277 3 -150 87 -277 228 -343 58 -27 78 -31 153 -32 61 0 101 5 138 19 237 87
332 378 190 585 -36 52 -38 55 -92 97 -49 38 -150 73 -211 75 -42 1 -46 3 -71
47 -41 71 -151 230 -206 296 -238 289 -554 514 -902 644 -99 36 -258 83 -325
95 -128 22 -149 25 -220 32 -67 6 -317 13 -322 9z m2109 -1352 c136 -64 128
-270 -13 -329 -71 -30 -167 -5 -211 55 -116 156 48 358 224 274z"/>
<path d="M3393 5176 c-86 -39 -92 -165 -11 -216 69 -44 169 -2 184 77 19 101
-80 181 -173 139z"/>
<path d="M3505 4799 c-258 -23 -470 -98 -643 -226 -184 -136 -314 -303 -395
-509 -83 -211 -103 -437 -57 -646 12 -51 23 -100 25 -109 10 -48 74 -182 119
-248 141 -211 363 -356 621 -405 129 -24 338 -8 447 33 79 30 83 147 7 186
-28 15 -86 14 -110 -1 -12 -7 -63 -15 -147 -21 -247 -19 -507 113 -647 327
-167 255 -174 625 -17 910 199 363 586 545 1054 496 32 -4 63 -9 70 -11 7 -2
24 -6 38 -9 14 -2 63 -16 110 -31 338 -108 622 -376 751 -708 65 -169 94 -345
92 -557 -6 -648 -441 -1232 -1063 -1429 -75 -23 -170 -47 -220 -55 -19 -3 -62
-10 -94 -16 -33 -5 -60 -9 -61 -7 -10 23 -64 96 -84 114 -87 80 -237 102 -343
50 -52 -26 -111 -79 -136 -123 -10 -18 -12 -18 -87 0 -353 83 -660 254 -921
513 -187 185 -320 387 -437 663 -60 142 -128 426 -145 610 -15 157 -7 489 14
617 15 90 -84 149 -162 98 -30 -20 -41 -46 -49 -122 -4 -32 -11 -87 -15 -123
-8 -65 -5 -433 4 -500 3 -19 7 -51 10 -70 23 -167 68 -358 121 -510 243 -697
836 -1224 1556 -1384 l75 -17 17 -49 c22 -63 92 -134 163 -167 146 -66 321 -4
402 142 15 28 32 51 37 52 6 0 39 4 75 8 36 4 68 9 71 11 3 2 21 6 40 9 664
115 1207 612 1384 1267 14 51 28 116 31 143 3 28 8 53 9 56 9 14 18 143 18
249 0 260 -51 491 -155 707 -161 336 -460 601 -812 718 -192 65 -384 90 -561
74z m-371 -3059 c32 -12 57 -50 58 -90 3 -95 -110 -141 -174 -70 -75 83 10
201 116 160z"/>
<path d="M3323 4065 c-35 -7 -90 -28 -124 -46 -318 -170 -384 -596 -130 -848
213 -213 541 -213 752 -2 208 208 213 523 12 741 -128 138 -321 197 -510 155z
m244 -217 c143 -53 232 -221 199 -377 -18 -84 -96 -180 -181 -222 -42 -20 -65
-24 -140 -24 -79 0 -97 4 -142 27 -68 36 -120 90 -152 158 -22 46 -26 69 -26
140 1 71 5 93 27 135 43 83 121 151 199 174 61 17 154 13 216 -11z"/>
<path d="M603 3855 c-42 -18 -66 -57 -67 -110 -1 -55 27 -95 81 -114 52 -18
89 -8 130 35 54 57 43 135 -26 181 -39 26 -72 28 -118 8z"/>
<path d="M6370 3743 c-85 -25 -123 -109 -84 -184 21 -41 84 -69 131 -59 135
31 130 220 -8 243 -13 2 -31 2 -39 0z"/>
<path d="M5765 3456 c-59 -25 -60 -30 -61 -260 -1 -116 -4 -224 -7 -241 -3
-16 -9 -59 -12 -95 -4 -36 -9 -68 -11 -71 -2 -4 -6 -24 -10 -45 -3 -22 -17
-86 -31 -144 -125 -515 -443 -1009 -858 -1330 -38 -30 -72 -57 -75 -60 -11
-12 -149 -100 -240 -151 -248 -142 -632 -280 -900 -323 -19 -3 -46 -8 -60 -11
-14 -3 -45 -8 -70 -11 -25 -3 -56 -7 -70 -10 -144 -24 -612 -24 -735 1 -11 2
-42 7 -70 10 -158 18 -447 92 -632 161 -271 100 -477 212 -763 411 -115 80
-341 285 -460 419 -183 204 -330 419 -454 664 -74 145 -99 167 -173 148 -35
-9 -73 -60 -73 -99 0 -21 82 -194 137 -289 181 -314 399 -582 668 -823 81 -73
102 -90 211 -172 333 -252 751 -455 1143 -555 106 -27 315 -68 386 -76 33 -3
68 -8 79 -10 124 -23 594 -23 749 1 12 2 43 6 68 9 493 68 1006 266 1369 530
253 184 486 425 657 681 216 323 360 696 417 1082 23 154 28 226 28 409 0 190
-8 221 -62 249 -35 18 -46 18 -85 1z"/>
<path d="M3872 3054 c-39 -16 -72 -68 -72 -112 0 -111 133 -165 211 -85 92 93
-18 248 -139 197z"/>
<path d="M990 2200 c-36 -9 -70 -64 -70 -115 l0 -43 -56 -4 c-86 -7 -127 -65
-97 -140 16 -41 45 -59 100 -63 21 -2 41 -4 44 -4 4 -1 9 -24 11 -53 4 -42 11
-57 37 -80 33 -30 73 -36 114 -17 33 15 50 46 57 103 l5 48 47 3 c59 4 94 29
106 77 8 30 6 44 -8 70 -21 41 -53 58 -107 58 l-43 0 0 40 c0 90 -60 141 -140
120z"/>
<path d="M4315 1562 c-26 -6 -67 -38 -82 -65 -18 -33 -15 -88 7 -124 34 -57
93 -73 156 -43 82 40 95 141 26 203 -23 21 -77 35 -107 29z"/>
<path d="M5764 1166 c-34 -15 -55 -56 -57 -112 -2 -37 -3 -37 -47 -40 -56 -4
-82 -17 -104 -55 -37 -62 11 -148 83 -150 67 -2 66 -1 68 -49 4 -59 19 -86 59
-105 76 -36 145 12 149 104 1 44 3 46 31 47 62 2 95 16 115 47 48 79 -4 160
-103 161 l-42 1 -3 49 c-5 63 -17 85 -58 102 -42 17 -51 17 -91 0z"/>
</g>
</svg>
