<svg xmlns="http://www.w3.org/2000/svg" xmlns:xlink="http://www.w3.org/1999/xlink" width="512" height="512" viewBox="0 0 512 512">
  <defs>
    <clipPath id="clip-earth">
      <rect width="512" height="512"/>
    </clipPath>
  </defs>
  <g id="earth" clip-path="url(#clip-earth)">
    <g id="earth-2" data-name="earth" transform="translate(-12 -12.747)">
      <circle id="Ellipse_1" data-name="Ellipse 1" cx="236.5" cy="236.5" r="236.5" transform="translate(32 31.747)" fill="#6478b9"/>
      <path id="Tracé_1" data-name="Tracé 1" d="M256,32V504.747c130.546,0,236.373-105.828,236.373-236.373S386.546,32,256,32Z" transform="translate(12.373 0)" fill="#465a9b"/>
      <path id="Tracé_2" data-name="Tracé 2" d="M129.14,99.536h19.7a33.768,33.768,0,0,1,0,67.535h-2.814a33.768,33.768,0,1,0,0,67.535H297.978a33.768,33.768,0,1,0,0-67.535,33.768,33.768,0,0,1,0-67.535h33.768A33.778,33.778,0,0,0,363.3,53.724,236.5,236.5,0,0,0,107.357,91.561a33.621,33.621,0,0,0,21.783,7.974Z" transform="translate(4.163 0)" fill="#82cdaa"/>
      <g id="Groupe_1" data-name="Groupe 1" transform="translate(234.606 32)">
        <path id="Tracé_3" data-name="Tracé 3" d="M289.768,99.535h33.768a33.778,33.778,0,0,0,31.552-45.811A235.453,235.453,0,0,0,256,32V133.3A33.768,33.768,0,0,1,289.768,99.535Z" transform="translate(-222.232 -32)" fill="#199196"/>
        <path id="Tracé_4" data-name="Tracé 4" d="M323.535,195.535a33.768,33.768,0,0,0-33.768-33.768A33.768,33.768,0,0,1,256,128V229.3h33.768A33.768,33.768,0,0,0,323.535,195.535Z" transform="translate(-222.232 -26.697)" fill="#199196"/>
        <path id="Tracé_5" data-name="Tracé 5" d="M491.73,288H325.3a33.768,33.768,0,1,0,0,67.535,33.768,33.768,0,1,1,0,67.535H257.768a33.768,33.768,0,0,0,0,67.535C376.846,490.606,475.342,402.547,491.73,288Z" transform="translate(-224 -17.859)" fill="#199196"/>
      </g>
      <path id="Tracé_6" data-name="Tracé 6" d="M257.768,416v67.535a33.768,33.768,0,1,1,0-67.535Z" transform="translate(10.606 21.212)" fill="#82cdaa"/>
      <rect id="Rectangle_1" data-name="Rectangle 1" width="101" height="68" rx="32" transform="translate(82 301.747)" fill="#82cdaa"/>
    </g>
  </g>
</svg>
