<svg xmlns="http://www.w3.org/2000/svg" xmlns:xlink="http://www.w3.org/1999/xlink" width="512" height="512" viewBox="0 0 512 512">
  <defs>
    <clipPath id="clip-jupiter">
      <rect width="512" height="512"/>
    </clipPath>
  </defs>
  <g id="jupiter" clip-path="url(#clip-jupiter)">
    <g id="jupiter-2" data-name="jupiter" transform="translate(16 16)">
      <path id="Tracé_7" data-name="Tracé 7" d="M412.665,73.326q1.185,1.227,2.351,2.473Q413.849,74.554,412.665,73.326Z" fill="#ffd042"/>
      <path id="Tracé_8" data-name="Tracé 8" d="M423.028,84.774q2.178,2.565,4.285,5.193Q425.207,87.341,423.028,84.774Z" fill="#ffd042"/>
      <path id="Tracé_9" data-name="Tracé 9" d="M415.641,76.469q2.227,2.391,4.391,4.843Q417.869,78.86,415.641,76.469Z" fill="#ffd042"/>
      <path id="Tracé_10" data-name="Tracé 10" d="M382.135,46.614c.755.556,1.509,1.112,2.257,1.676C383.643,47.725,382.889,47.169,382.135,46.614Z" fill="#ffd042"/>
      <path id="Tracé_11" data-name="Tracé 11" d="M404.606,65.36q1.193,1.125,2.368,2.267Q405.8,66.487,404.606,65.36Z" fill="#ffd042"/>
      <path id="Tracé_12" data-name="Tracé 12" d="M386.124,49.618q1.8,1.382,3.569,2.8Q387.923,51,386.124,49.618Z" fill="#ffd042"/>
      <path id="Tracé_13" data-name="Tracé 13" d="M427.638,90.371q1.123,1.407,2.228,2.832Q428.762,91.778,427.638,90.371Z" fill="#ffd042"/>
      <path id="Tracé_14" data-name="Tracé 14" d="M391.07,53.522q2.52,2.044,4.985,4.151Q393.592,55.564,391.07,53.522Z" fill="#ffd042"/>
      <path id="Tracé_15" data-name="Tracé 15" d="M399.639,60.812q2.364,2.109,4.674,4.276Q402.006,62.917,399.639,60.812Z" fill="#ffd042"/>
      <path id="Tracé_16" data-name="Tracé 16" d="M396.176,57.775q1.185,1.017,2.355,2.052Q397.358,58.795,396.176,57.775Z" fill="#ffd042"/>
      <path id="Tracé_17" data-name="Tracé 17" d="M420.349,81.668q1.161,1.321,2.3,2.659Q421.508,82.99,420.349,81.668Z" fill="#ffd042"/>
      <path id="Tracé_18" data-name="Tracé 18" d="M279.759,476.7q-5.7.954-11.5,1.633Q274.053,477.655,279.759,476.7Z" fill="#ffd042"/>
      <path id="Tracé_19" data-name="Tracé 19" d="M265.323,478.671c-.855.09-1.714.167-2.571.248C263.609,478.839,264.468,478.761,265.323,478.671Z" fill="#ffd042"/>
      <path id="Tracé_20" data-name="Tracé 20" d="M285.145,475.741c-1.291.246-2.583.486-3.881.712C282.562,476.229,283.854,475.987,285.145,475.741Z" fill="#ffd042"/>
      <path id="Tracé_21" data-name="Tracé 21" d="M259.6,479.2q-1.23.1-2.463.185C257.956,479.326,258.777,479.266,259.6,479.2Z" fill="#ffd042"/>
      <path id="Tracé_22" data-name="Tracé 22" d="M253.764,479.6c-.767.043-1.534.087-2.3.123C252.23,479.685,253,479.641,253.764,479.6Z" fill="#ffd042"/>
      <path id="Tracé_23" data-name="Tracé 23" d="M290.549,474.649q-2.051.441-4.114.845Q288.5,475.089,290.549,474.649Z" fill="#ffd042"/>
      <path id="Tracé_24" data-name="Tracé 24" d="M479.139,219.72c.065.767.135,1.533.192,2.3C479.274,221.253,479.2,220.488,479.139,219.72Z" fill="#ffd042"/>
      <path id="Tracé_25" data-name="Tracé 25" d="M479.646,226.995c.033.622.059,1.245.088,1.868C479.7,228.24,479.679,227.617,479.646,226.995Z" fill="#ffd042"/>
      <path id="Tracé_26" data-name="Tracé 26" d="M479.881,232.748c.017.576.035,1.152.049,1.729C479.917,233.9,479.9,233.324,479.881,232.748Z" fill="#ffd042"/>
      <path id="Tracé_27" data-name="Tracé 27" d="M478.571,213.8q.159,1.463.3,2.93Q478.732,215.265,478.571,213.8Z" fill="#ffd042"/>
      <path id="Tracé_28" data-name="Tracé 28" d="M363.255,34.04q1.043.625,2.08,1.259Q364.3,34.663,363.255,34.04Z" fill="#ffd042"/>
      <path id="Tracé_29" data-name="Tracé 29" d="M299.5,7.438c.455.116.907.237,1.36.355C300.4,7.675,299.953,7.554,299.5,7.438Z" fill="#ffd042"/>
      <path id="Tracé_30" data-name="Tracé 30" d="M293.363,5.963c.421.095.843.188,1.263.286C294.206,6.152,293.784,6.059,293.363,5.963Z" fill="#ffd042"/>
      <path id="Tracé_31" data-name="Tracé 31" d="M310.779,10.615q.756.234,1.509.474C311.785,10.93,311.283,10.77,310.779,10.615Z" fill="#ffd042"/>
      <path id="Tracé_32" data-name="Tracé 32" d="M287.989,4.8c.4.081.8.167,1.194.25C288.784,4.97,288.387,4.884,287.989,4.8Z" fill="#ffd042"/>
      <path id="Tracé_33" data-name="Tracé 33" d="M377.541,43.314q1.477,1.035,2.938,2.093Q379.018,44.35,377.541,43.314Z" fill="#ffd042"/>
      <path id="Tracé_34" data-name="Tracé 34" d="M316.042,12.307c.422.141.847.278,1.268.421C316.889,12.585,316.464,12.448,316.042,12.307Z" fill="#ffd042"/>
      <path id="Tracé_35" data-name="Tracé 35" d="M264.355,1.223c.25.025.5.055.75.081C264.855,1.278,264.605,1.248,264.355,1.223Z" fill="#ffd042"/>
      <path id="Tracé_36" data-name="Tracé 36" d="M252.258.309c.147.007.293.018.44.025C252.551.327,252.4.316,252.258.309Z" fill="#ffd042"/>
      <path id="Tracé_37" data-name="Tracé 37" d="M276.268,2.726c.334.051.666.106,1,.158C276.934,2.832,276.6,2.777,276.268,2.726Z" fill="#ffd042"/>
      <path id="Tracé_38" data-name="Tracé 38" d="M281.682,3.616c.426.075.853.147,1.278.224C282.535,3.763,282.108,3.69,281.682,3.616Z" fill="#ffd042"/>
      <path id="Tracé_39" data-name="Tracé 39" d="M304.82,8.866c.42.117.842.231,1.261.351C305.662,9.1,305.24,8.983,304.82,8.866Z" fill="#ffd042"/>
      <path id="Tracé_40" data-name="Tracé 40" d="M321.817,14.316c.55.2,1.1.4,1.645.606Q322.642,14.616,321.817,14.316Z" fill="#ffd042"/>
      <path id="Tracé_41" data-name="Tracé 41" d="M348.163,25.71q1.184.6,2.357,1.21Q349.344,26.31,348.163,25.71Z" fill="#ffd042"/>
      <path id="Tracé_42" data-name="Tracé 42" d="M353.331,28.4q1,.534,1.986,1.077Q354.327,28.937,353.331,28.4Z" fill="#ffd042"/>
      <path id="Tracé_43" data-name="Tracé 43" d="M372.861,40.116q1.088.725,2.169,1.457C374.31,41.082,373.586,40.6,372.861,40.116Z" fill="#ffd042"/>
      <path id="Tracé_44" data-name="Tracé 44" d="M368.1,37.022q1.4.886,2.787,1.792Q369.495,37.908,368.1,37.022Z" fill="#ffd042"/>
      <path id="Tracé_45" data-name="Tracé 45" d="M358.289,31.142q1.311.744,2.61,1.5Q359.6,31.888,358.289,31.142Z" fill="#ffd042"/>
      <path id="Tracé_46" data-name="Tracé 46" d="M327.023,16.275c.422.164.846.323,1.267.49C327.87,16.6,327.445,16.439,327.023,16.275Z" fill="#ffd042"/>
      <path id="Tracé_47" data-name="Tracé 47" d="M343.11,23.228q.942.448,1.879.906Q344.052,23.677,343.11,23.228Z" fill="#ffd042"/>
      <path id="Tracé_48" data-name="Tracé 48" d="M332.6,18.525q.885.37,1.767.75Q333.484,18.9,332.6,18.525Z" fill="#ffd042"/>
      <path id="Tracé_49" data-name="Tracé 49" d="M337.726,20.745q.99.441,1.975.891Q338.715,21.186,337.726,20.745Z" fill="#ffd042"/>
      <path id="Tracé_50" data-name="Tracé 50" d="M412.369,73.022q-2.236-2.309-4.535-4.556Q410.13,70.716,412.369,73.022Z" fill="#ffd042"/>
      <path id="Tracé_51" data-name="Tracé 51" d="M437.258,103.29q1.722,2.481,3.387,5-2.969-4.512-6.13-8.881,1.383,1.91,2.724,3.85Z" fill="#ffd042"/>
      <path id="Tracé_52" data-name="Tracé 52" d="M240,325.714a678.466,678.466,0,0,1-92.75-6.175,238.243,238.243,0,0,0,8.68,35.37c-58.3-7.231-106.556-21.722-135.394-40.346l-.135-.089q-1.377-.891-2.691-1.8l-.366-.25q-1.366-.947-2.669-1.9c-.084-.062-.165-.125-.249-.187-.751-.557-1.481-1.119-2.2-1.682-.194-.153-.388-.306-.58-.459-.784-.627-1.554-1.256-2.3-1.891h0a238.91,238.91,0,0,0,34.63,72.091,298.58,298.58,0,0,0,40.849,14.272q7.938,2.195,16.386,4.167,4.669,1.086,9.488,2.1s-.015-.03-.042-.088c-.055-.116-.163-.344-.312-.67-.522-1.139-1.551-3.47-2.614-6.346-.3-.822-.61-1.688-.908-2.584s-.588-1.821-.858-2.761c-.244-.847-.469-1.706-.673-2.565a31.939,31.939,0,0,1-.982-7.189c0-.428.015-.847.046-1.254a11.92,11.92,0,0,1,.341-2.091,7.818,7.818,0,0,1,.65-1.692,6.045,6.045,0,0,1,.421-.69c1.1-1.553,2.891-2.488,5.655-2.434q.848.016,1.7.063c.158.008.317.023.475.033.411.026.822.051,1.235.086.218.019.438.045.656.066.354.034.706.067,1.061.108.254.03.509.066.763.1.323.042.646.081.971.128.265.038.532.084.8.126.315.05.629.1.946.152.275.048.552.1.828.153.31.057.619.113.93.175.283.056.567.119.851.179.305.064.609.127.915.2s.583.136.875.2.6.141.906.216.6.153.894.231.6.153.893.234.6.168.906.253.6.167.9.255.6.179.9.269.611.183.918.279.6.19.9.287.618.2.928.3.6.2.9.3.624.211.936.32c.3.1.6.21.893.317.32.114.639.227.959.344.293.107.586.217.88.326.327.122.653.243.981.368q.434.165.867.334c.336.13.671.26,1.008.393.282.111.565.225.848.338q.518.207,1.036.418c.276.112.552.227.828.341.358.148.716.3,1.074.447.263.11.527.223.79.334.374.159.749.318,1.124.48l.752.326q.587.255,1.175.514l.71.315c.408.182.818.364,1.228.549l.67.3q.645.293,1.294.589l.584.269q.705.324,1.413.654l.464.217q.768.359,1.54.722l.358.169q.836.395,1.673.794l.212.1c4.173,1.991,8.4,4.067,12.69,6.152a238.2,238.2,0,0,1-14.5-34.423A687.072,687.072,0,0,0,240,360a693.182,693.182,0,0,0,77.145-4.208l31.322-4.361c55.284-9.26,99.1-25.38,122.187-45.147a238.91,238.91,0,0,1-34.614,72.081C390.551,398.476,319.684,412.636,240,411.429c-24.076-.365-47.591-11.348-69.693-22.1a240.644,240.644,0,0,0,39.454,55.686l.124.006c.023.025.048.048.071.073q14.772.617,30.044.625c55.516,0,106.7-6.311,148.079-16.917a239.25,239.25,0,0,1-96.751,45.683C399.21,450.972,480,354.929,480,240c0,8.019-.411,15.942-1.18,23.759C448.937,299.535,353.366,325.714,240,325.714Z" fill="#f5b9e5"/>
      <path id="Tracé_53" data-name="Tracé 53" d="M246.833.1q-.649-.018-1.3-.032l.1,0Q246.233.086,246.833.1Z" fill="#ffd042"/>
      <path id="Tracé_54" data-name="Tracé 54" d="M432.7,96.938c.076.1.148.209.224.312.426.575.853,1.149,1.274,1.728q-2.079-2.857-4.237-5.651,1.386,1.791,2.734,3.613Z" fill="#ffd042"/>
      <path id="Tracé_55" data-name="Tracé 55" d="M259.048.751c-.308-.024-.616-.05-.925-.073.171.013.341.029.512.042Z" fill="#ffd042"/>
      <path id="Tracé_56" data-name="Tracé 56" d="M444.853,115.016c1.641,2.693,3.249,5.408,4.79,8.167C405.5,147.032,328.129,162.857,240,162.857c-22.083,0-43.49-.994-63.869-2.859a238.454,238.454,0,0,0-23.856,57.346l.053.007,0,.012q12.519,1.629,25.646,2.8l0-.007c45.638,3.093,75.471,22.415,103.657,27.463a8.6,8.6,0,0,0,8.744-13.254l-8.622-12.716c85.209-4.969,155.6-24.9,187.844-51.677a239.564,239.564,0,0,1,8.751,41.824,238.542,238.542,0,0,0-37.365-103q2.008,3.07,3.927,6.206ZM252,224c-6.627,0-12-3.582-12-8s5.373-8,12-8,12,3.582,12,8S258.627,224,252,224Z" fill="#f5b9e5"/>
      <path id="Tracé_57" data-name="Tracé 57" d="M271.09,2c-.428-.055-.857-.107-1.286-.16q.6.074,1.2.149Z" fill="#ffd042"/>
      <path id="Tracé_58" data-name="Tracé 58" d="M245.748,479.927c.644-.015,1.285-.042,1.928-.062C247.033,479.885,246.392,479.912,245.748,479.927Z" fill="#ffd042"/>
      <path id="Tracé_59" data-name="Tracé 59" d="M193.571,475.495q-2.07-.406-4.128-.848Q191.5,475.089,193.571,475.495Z" fill="#ff9300"/>
      <path id="Tracé_60" data-name="Tracé 60" d="M234.251,479.927c-.644-.015-1.285-.042-1.928-.062C232.966,479.885,233.607,479.912,234.251,479.927Z" fill="#ff9300"/>
      <path id="Tracé_61" data-name="Tracé 61" d="M198.739,476.454c-1.3-.226-2.6-.467-3.9-.715C196.139,475.986,197.436,476.228,198.739,476.454Z" fill="#ff9300"/>
      <path id="Tracé_62" data-name="Tracé 62" d="M211.755,478.337q-5.807-.682-11.527-1.636Q205.948,477.655,211.755,478.337Z" fill="#ff9300"/>
      <path id="Tracé_63" data-name="Tracé 63" d="M222.867,479.384q-1.234-.087-2.468-.185C221.22,479.266,222.043,479.326,222.867,479.384Z" fill="#ff9300"/>
      <path id="Tracé_64" data-name="Tracé 64" d="M217.256,478.92c-.862-.081-1.724-.159-2.583-.249C215.532,478.761,216.4,478.839,217.256,478.92Z" fill="#ff9300"/>
      <path id="Tracé_65" data-name="Tracé 65" d="M228.539,479.721c-.769-.036-1.536-.08-2.3-.123C227,479.641,227.77,479.685,228.539,479.721Z" fill="#ff9300"/>
      <path id="Tracé_66" data-name="Tracé 66" d="M109.326,441.248q-5.642-3.674-11.061-7.649-.6-.436-1.188-.876c-1.733-1.288-3.455-2.589-5.151-3.922l-.006,0h0c1.931.495,3.89.978,5.863,1.453.3.073.605.147.91.219q3.059.73,6.178,1.43l.02,0c30.9,6.91,66.55,11.491,104.865,13.105a240.644,240.644,0,0,1-39.454-55.686c-4.232-2.06-8.412-4.111-12.534-6.077l-.212-.1q-.839-.4-1.673-.794l-.358-.169q-.771-.365-1.54-.722l-.464-.217q-.708-.33-1.413-.654l-.584-.269q-.648-.3-1.294-.589l-.67-.3c-.41-.185-.819-.367-1.228-.549l-.71-.315q-.59-.26-1.175-.514c-.251-.109-.5-.219-.752-.326-.375-.162-.75-.321-1.124-.48-.264-.112-.527-.224-.79-.334-.359-.151-.717-.3-1.074-.447-.276-.114-.553-.229-.828-.341q-.519-.211-1.036-.418c-.283-.113-.566-.227-.848-.338-.337-.133-.672-.263-1.008-.393q-.434-.168-.867-.334c-.328-.125-.654-.246-.981-.368-.293-.109-.587-.219-.88-.326-.32-.117-.64-.23-.959-.344-.3-.106-.6-.213-.893-.317-.313-.109-.624-.214-.936-.32s-.6-.2-.9-.3-.619-.2-.928-.3-.6-.193-.9-.287-.612-.187-.918-.279-.6-.182-.9-.269-.6-.171-.9-.255-.605-.172-.906-.253-.6-.156-.893-.234-.6-.157-.894-.231-.6-.144-.906-.216-.584-.14-.875-.2-.61-.131-.915-.2c-.284-.06-.568-.123-.851-.179-.311-.062-.62-.117-.93-.175-.276-.051-.553-.106-.828-.153-.316-.055-.631-.1-.946-.152-.266-.042-.533-.088-.8-.126-.325-.047-.647-.086-.971-.128-.254-.033-.51-.07-.763-.1-.355-.041-.708-.073-1.061-.108-.219-.021-.438-.047-.656-.066-.413-.035-.824-.061-1.235-.086-.158-.01-.317-.024-.475-.033-.569-.03-1.136-.052-1.7-.063-2.764-.054-4.555.881-5.655,2.434a6.378,6.378,0,0,0-.421.69,7.851,7.851,0,0,0-.65,1.692,11.936,11.936,0,0,0-.341,2.091c-.031.407-.045.826-.046,1.254a31.953,31.953,0,0,0,.982,7.189c.2.859.429,1.718.673,2.565.271.94.56,1.865.858,2.761s.6,1.762.908,2.584c1.063,2.876,2.092,5.207,2.614,6.346.149.325.257.554.312.67l.042.088q-4.818-1.014-9.488-2.1-8.453-1.967-16.386-4.167a298.715,298.715,0,0,1-40.849-14.271A238.9,238.9,0,0,1,9.355,306.3h0c.742.635,1.512,1.264,2.3,1.891.192.153.386.306.58.459.717.564,1.447,1.125,2.2,1.682.084.062.165.125.249.187q1.3.96,2.669,1.9c.121.084.244.167.366.25q1.317.9,2.691,1.8l.135.089c28.838,18.624,77.093,33.115,135.394,40.346a238.241,238.241,0,0,1-8.68-35.37C85.725,310.992,36.409,294.2,10.775,273.131c-.091-.075-.179-.15-.27-.224q-1.156-.959-2.247-1.927c-.118-.1-.238-.208-.355-.313-.781-.7-1.54-1.41-2.269-2.122-.106-.1-.2-.207-.31-.311q-.906-.9-1.755-1.8c-.174-.185-.348-.371-.519-.557-.644-.7-1.271-1.406-1.864-2.115l0,0h0C.411,255.942,0,248.019,0,240,0,354.932,80.795,450.977,188.681,474.482a238.678,238.678,0,0,1-78.9-32.937ZM152,392c9.667,5.667,16.5,12.5,16,24s-46.5-12-48-24S139.792,384.843,152,392Z" fill="#e96ac8"/>
      <path id="Tracé_67" data-name="Tracé 67" d="M254.409.434q1.428.086,2.852.184Q255.838.518,254.409.434Z" fill="#ff9300"/>
      <path id="Tracé_68" data-name="Tracé 68" d="M240,0q2.154,0,4.3.04Q242.154,0,240,0Z" fill="#ff9300"/>
      <path id="Tracé_69" data-name="Tracé 69" d="M222.568.631q1.721-.125,3.448-.224Q224.29.508,222.568.631Z" fill="#ff9300"/>
      <path id="Tracé_70" data-name="Tracé 70" d="M240,0q-2.113,0-4.219.039c.2,0,.4,0,.6-.006Q238.185,0,240,0Z" fill="#ff9300"/>
      <path id="Tracé_71" data-name="Tracé 71" d="M444.853,115.016l.052-.01q-1.917-3.135-3.927-6.206c-.11-.169-.222-.337-.333-.5q-1.66-2.526-3.387-5C439.906,107.115,442.426,111.033,444.853,115.016Z" fill="#ff9300"/>
      <path id="Tracé_72" data-name="Tracé 72" d="M347.327,25.343l.336.167q1.2.606,2.4,1.225.871.45,1.739.905.612.323,1.221.65,1.458.778,2.9,1.576l.33.183c.552.306,1.108.607,1.657.918.2.11.4.2.594.316q7.348,4.182,14.362,8.864c.063.042.123.089.186.131q-10.232.459-20.225,1.773-7.42,1.31-15.118,2.45a239.838,239.838,0,0,0-138.881,82.884l.031,0-.007.008c13.385.77,27.128,1.176,41.148,1.176,17.369,0,34.322-.614,50.686-1.783q4.689-.334,9.312-.73l29.238-3.176c40.8-5.412,76.311-14.455,103.459-25.942q-1.352-1.818-2.734-3.613l-.1-.124q-1.1-1.425-2.228-2.832l-.324-.4q-2.107-2.626-4.285-5.193c-.126-.149-.251-.3-.378-.447q-1.141-1.338-2.3-2.659c-.105-.12-.212-.238-.317-.357q-2.163-2.453-4.391-4.843c-.208-.223-.415-.448-.624-.67q-1.167-1.245-2.351-2.473c-.1-.1-.2-.2-.3-.3q-2.236-2.309-4.535-4.556c-.286-.28-.572-.561-.86-.84q-1.178-1.14-2.368-2.267c-.1-.092-.2-.181-.293-.272q-2.309-2.169-4.674-4.276-.553-.493-1.109-.984c-.781-.688-1.564-1.375-2.355-2.052l-.12-.1q-2.463-2.111-4.985-4.151-.687-.556-1.377-1.109-1.77-1.415-3.569-2.8c-.577-.444-1.152-.89-1.733-1.328-.748-.564-1.5-1.12-2.257-1.676q-.825-.607-1.656-1.207-1.461-1.058-2.938-2.093c-.834-.584-1.67-1.167-2.512-1.741-.719-.491-1.444-.974-2.169-1.457q-.986-.657-1.979-1.3-1.387-.9-2.787-1.792-1.374-.87-2.76-1.723-1.035-.636-2.08-1.259-1.173-.7-2.356-1.393-1.3-.76-2.61-1.5-1.48-.84-2.972-1.662-.99-.543-1.986-1.077-1.4-.751-2.811-1.483-1.174-.61-2.357-1.21-1.581-.8-3.174-1.577-.937-.456-1.879-.906-1.7-.808-3.409-1.592-.986-.45-1.975-.891-1.672-.747-3.359-1.47-.882-.378-1.767-.75-2.145-.9-4.309-1.76c-.42-.167-.845-.326-1.267-.49q-1.775-.69-3.561-1.354c-.548-.2-1.1-.406-1.645-.606q-2.244-.813-4.507-1.588c-.421-.143-.846-.28-1.268-.421q-1.871-.624-3.754-1.219-.754-.239-1.509-.474-2.34-.721-4.7-1.4c-.419-.12-.841-.234-1.261-.351q-1.974-.552-3.962-1.072c-.453-.119-.906-.24-1.36-.355q-2.427-.62-4.872-1.189c-.42-.1-.842-.191-1.263-.286q-2.084-.473-4.18-.91c-.4-.083-.8-.169-1.194-.25q-2.505-.508-5.028-.963c-.425-.077-.852-.149-1.278-.224q-2.2-.385-4.415-.731c-.333-.052-.666-.108-1-.158Q273.69,2.336,271.094,2A238.17,238.17,0,0,1,347.327,25.343Z" fill="#e96ac8"/>
      <path id="Tracé_73" data-name="Tracé 73" d="M437.239,103.263q-1.346-1.938-2.724-3.85c-.105-.146-.211-.29-.317-.435-.421-.579-.848-1.153-1.274-1.728Q435.126,100.222,437.239,103.263Z" fill="#ff9300"/>
      <path id="Tracé_74" data-name="Tracé 74" d="M252.92.347,252.7.334c-.147-.008-.293-.018-.44-.025-.717-.036-1.436-.062-2.154-.092C251.044.256,251.983.3,252.92.347Z" fill="#ff9300"/>
      <path id="Tracé_75" data-name="Tracé 75" d="M261.662.972q-1.3-.117-2.614-.221L258.636.72Q260.151.839,261.662.972Z" fill="#ff9300"/>
      <path id="Tracé_76" data-name="Tracé 76" d="M271,1.99q-.6-.076-1.2-.149-1.414-.175-2.833-.336Q268.99,1.732,271,1.99Z" fill="#ff9300"/>
      <path id="Tracé_77" data-name="Tracé 77" d="M266.183,1.42,265.105,1.3c-.25-.026-.5-.056-.75-.081-.512-.052-1.026-.1-1.539-.145Q264.5,1.238,266.183,1.42Z" fill="#ff9300"/>
      <path id="Tracé_78" data-name="Tracé 78" d="M248.606.155c-.59-.021-1.182-.036-1.774-.053q-.6-.016-1.2-.03C246.625.1,247.617.12,248.606.155Z" fill="#ff9300"/>
      <path id="Tracé_79" data-name="Tracé 79" d="M234.539.068l-.075,0c-.385.009-.77.017-1.155.027q-.891.024-1.782.055C232.529.117,233.533.091,234.539.068Z" fill="#ff9300"/>
      <path id="Tracé_80" data-name="Tracé 80" d="M230.187.2c-.738.03-1.476.059-2.212.1-.3.015-.594.032-.89.048Q228.633.266,230.187.2Z" fill="#ff9300"/>
      <path id="Tracé_81" data-name="Tracé 81" d="M240,0q-1.815,0-3.623.033C237.583.016,238.79,0,240,0Z" fill="#ff7400"/>
      <path id="Tracé_82" data-name="Tracé 82" d="M355.922,29.866q-1.446-.8-2.9-1.576Q354.475,29.07,355.922,29.866Z" fill="#ff7400"/>
      <path id="Tracé_83" data-name="Tracé 83" d="M373.052,40.278c-.063-.042-.123-.089-.186-.131q-7.014-4.673-14.362-8.864c-.2-.111-.4-.206-.594-.316-.55-.311-1.105-.612-1.657-.918q7.289,4.047,14.26,8.576c-5.74,1.224-11.651,2.361-17.686,3.426Q362.817,40.754,373.052,40.278Z" fill="#ff7400"/>
      <path id="Tracé_84" data-name="Tracé 84" d="M347.663,25.51l-.336-.167Z" fill="#ff7400"/>
      <path id="Tracé_85" data-name="Tracé 85" d="M351.8,27.64q-.867-.456-1.739-.905C350.64,27.036,351.22,27.335,351.8,27.64Z" fill="#ff7400"/>
      <path id="Tracé_86" data-name="Tracé 86" d="M52.578,99.137q1.4.554,2.82,1.1c.525.2,1.055.4,1.585.6q1.338.5,2.7,1c.55.2,1.1.4,1.653.6.968.345,1.948.686,2.932,1.025.493.17.979.342,1.476.51q2.115.717,4.28,1.417c.616.2,1.244.394,1.865.591.879.279,1.759.557,2.65.832.766.236,1.54.468,2.314.7q1.129.339,2.271.675,1.268.372,2.547.738c.68.194,1.366.385,2.053.577.931.26,1.861.52,2.8.775.477.129.962.255,1.442.384q5.611,1.5,11.472,2.888c.344.082.686.164,1.032.245q1.923.45,3.872.889l.925.207q2.091.466,4.208.919l.047.01a596.831,596.831,0,0,0,89.3,11.574A239.838,239.838,0,0,1,337.71,44.5,671.2,671.2,0,0,1,240,51.429c-47.862,0-92.492-4.7-130.421-12.783a240.011,240.011,0,0,1,51.3-25.214c-2.163.751-4.318,1.521-6.45,2.336-1.229.469-2.448.957-3.667,1.445q-4.689,1.881-9.279,3.954c-1.046.472-2.1.932-3.137,1.418-3.832,1.8-7.618,3.673-11.336,5.663-.173.092-.352.175-.524.268q-6.18,3.327-12.138,7c-.315.194-.621.4-.935.6q-5.253,3.271-10.32,6.807c-.724.5-1.438,1.021-2.156,1.533q-4.6,3.279-9.037,6.763c-.625.491-1.254.976-1.874,1.472A241.61,241.61,0,0,0,60.19,81.122c-.348.394-.687.795-1.033,1.192q-4.028,4.616-7.819,9.437c-.375.477-.752.951-1.124,1.43-.976,1.26-1.928,2.541-2.883,3.818q1.942.82,3.946,1.624C51.706,98.795,52.144,98.965,52.578,99.137Z" fill="#d936ae"/>
      <path id="Tracé_87" data-name="Tracé 87" d="M181.505,7.213c-.359.09-.727.159-1.086.25C175.98,8.6,171.6,9.875,167.26,11.254c-1.019.324-2.019.689-3.032,1.026-.1.033-.2.069-.3.1q9.14-3.066,18.594-5.41C182.187,7.055,181.844,7.128,181.505,7.213Z" fill="#ff7400"/>
      <path id="Tracé_88" data-name="Tracé 88" d="M449.643,123.183c-1.541-2.759-3.149-5.474-4.79-8.167-2.427-3.982-4.947-7.9-7.6-11.726l-.019-.027q-2.109-3.043-4.315-6.013c-.076-.1-.147-.209-.224-.312l-.005,0c-27.148,11.487-62.664,20.53-103.459,25.942L300,126.058q-4.623.4-9.312.73c-16.364,1.169-33.317,1.783-50.686,1.783-14.02,0-27.762-.406-41.148-1.176a240.271,240.271,0,0,0-22.7,32.6c-.222-.02-.441-.043-.663-.063l.641.062c20.379,1.865,41.786,2.859,63.869,2.859C328.129,162.857,405.5,147.032,449.643,123.183Z" fill="#e8d0e1"/>
      <path id="Tracé_89" data-name="Tracé 89" d="M49.289,132.085c-.457-.189-.917-.377-1.369-.567C48.372,131.708,48.832,131.9,49.289,132.085Z" fill="#ffedb9"/>
      <path id="Tracé_90" data-name="Tracé 90" d="M43.75,129.724l-.183-.081C43.627,129.671,43.689,129.7,43.75,129.724Z" fill="#ffedb9"/>
      <path id="Tracé_91" data-name="Tracé 91" d="M39.492,127.776c-.415-.195-.823-.392-1.234-.589C38.668,127.384,39.076,127.581,39.492,127.776Z" fill="#ffedb9"/>
      <path id="Tracé_92" data-name="Tracé 92" d="M133.377,154.581c-.541-.089-1.083-.177-1.622-.267C132.294,154.4,132.836,154.492,133.377,154.581Z" fill="#ffedb9"/>
      <path id="Tracé_93" data-name="Tracé 93" d="M53.932,133.948c-.474-.184-.941-.371-1.41-.557C52.991,133.577,53.458,133.764,53.932,133.948Z" fill="#ffedb9"/>
      <path id="Tracé_94" data-name="Tracé 94" d="M126.291,153.37c-.743-.132-1.48-.268-2.219-.4C124.81,153.1,125.547,153.238,126.291,153.37Z" fill="#ffedb9"/>
      <path id="Tracé_95" data-name="Tracé 95" d="M120.035,152.215c-.729-.139-1.46-.277-2.185-.419C118.575,151.938,119.305,152.076,120.035,152.215Z" fill="#ffedb9"/>
      <path id="Tracé_96" data-name="Tracé 96" d="M30.357,123.183l.07.036-.07-.036Z" fill="#ffedb9"/>
      <path id="Tracé_97" data-name="Tracé 97" d="M106.234,149.384c-.67-.148-1.334-.3-2-.449C104.9,149.085,105.564,149.236,106.234,149.384Z" fill="#ffedb9"/>
      <path id="Tracé_98" data-name="Tracé 98" d="M93.429,146.359c-.3-.076-.605-.151-.906-.228C92.823,146.208,93.127,146.283,93.429,146.359Z" fill="#ffedb9"/>
      <path id="Tracé_99" data-name="Tracé 99" d="M100.328,148.036c-.66-.155-1.322-.31-1.978-.467C99.006,147.726,99.668,147.881,100.328,148.036Z" fill="#ffedb9"/>
      <path id="Tracé_100" data-name="Tracé 100" d="M112.8,150.785c-.419-.086-.839-.172-1.256-.259C111.965,150.613,112.385,150.7,112.8,150.785Z" fill="#ffedb9"/>
      <path id="Tracé_101" data-name="Tracé 101" d="M87.419,144.793c-.6-.163-1.2-.328-1.8-.492C86.217,144.465,86.815,144.63,87.419,144.793Z" fill="#ffedb9"/>
      <path id="Tracé_102" data-name="Tracé 102" d="M140.887,155.759c-.793-.119-1.587-.238-2.375-.36C139.3,155.521,140.094,155.64,140.887,155.759Z" fill="#ffedb9"/>
      <path id="Tracé_103" data-name="Tracé 103" d="M58.762,135.779l-.317-.115Z" fill="#ffedb9"/>
      <path id="Tracé_104" data-name="Tracé 104" d="M64.836,137.929c-.519-.178-1.04-.355-1.555-.535C63.8,137.573,64.317,137.75,64.836,137.929Z" fill="#ffedb9"/>
      <path id="Tracé_105" data-name="Tracé 105" d="M69.944,139.634c-.536-.174-1.065-.349-1.6-.524C68.88,139.284,69.409,139.46,69.944,139.634Z" fill="#ffedb9"/>
      <path id="Tracé_106" data-name="Tracé 106" d="M81.888,143.26c-.587-.167-1.176-.334-1.758-.5C80.712,142.926,81.3,143.092,81.888,143.26Z" fill="#ffedb9"/>
      <path id="Tracé_107" data-name="Tracé 107" d="M75.363,141.34l-.566-.172Z" fill="#ffedb9"/>
      <path id="Tracé_108" data-name="Tracé 108" d="M35.35,125.766c-.4-.2-.8-.4-1.193-.6C34.551,125.368,34.951,125.566,35.35,125.766Z" fill="#ffedb9"/>
      <path id="Tracé_109" data-name="Tracé 109" d="M37.808,110.774c.377-.59.751-1.182,1.134-1.769,2.653-4.079,5.4-8.089,8.3-11.987.011-.014.02-.029.03-.043q1.969.833,4,1.646-2-.8-3.946-1.624l-.057-.023a240.294,240.294,0,0,0-16.916,26.207l.006-.009C32.718,118.958,35.218,114.833,37.808,110.774Z" fill="#ffedb9"/>
      <path id="Tracé_110" data-name="Tracé 110" d="M162.765,158.628c-.844-.1-1.688-.19-2.527-.288C161.077,158.438,161.921,158.533,162.765,158.628Z" fill="#ffedb9"/>
      <path id="Tracé_111" data-name="Tracé 111" d="M147.449,156.709c-.8-.111-1.591-.225-2.385-.338C145.858,156.484,146.651,156.6,147.449,156.709Z" fill="#ffedb9"/>
      <path id="Tracé_112" data-name="Tracé 112" d="M169.61,159.364c-.847-.086-1.689-.176-2.532-.265C167.921,159.188,168.763,159.278,169.61,159.364Z" fill="#ffedb9"/>
      <path id="Tracé_113" data-name="Tracé 113" d="M154.975,157.7c-.619-.078-1.24-.155-1.856-.234C153.736,157.547,154.356,157.624,154.975,157.7Z" fill="#ffedb9"/>
      <path id="Tracé_114" data-name="Tracé 114" d="M105.269,114.882l-.925-.207Z" fill="#ffedb9"/>
      <path id="Tracé_115" data-name="Tracé 115" d="M64.269,103.454c-.984-.339-1.965-.68-2.932-1.025C62.3,102.774,63.285,103.115,64.269,103.454Z" fill="#ffedb9"/>
      <path id="Tracé_116" data-name="Tracé 116" d="M70.024,105.382q-2.165-.7-4.28-1.417Q67.86,104.682,70.024,105.382Z" fill="#ffedb9"/>
      <path id="Tracé_117" data-name="Tracé 117" d="M59.684,101.831q-1.361-.5-2.7-1Q58.321,101.336,59.684,101.831Z" fill="#ffedb9"/>
      <path id="Tracé_118" data-name="Tracé 118" d="M87.969,110.653c-.48-.128-.965-.254-1.442-.384C87,110.4,87.489,110.525,87.969,110.653Z" fill="#ffedb9"/>
      <path id="Tracé_119" data-name="Tracé 119" d="M55.4,100.235q-1.425-.544-2.82-1.1Q53.976,99.689,55.4,100.235Z" fill="#ffedb9"/>
      <path id="Tracé_120" data-name="Tracé 120" d="M100.472,113.786l-1.032-.245Z" fill="#ffedb9"/>
      <path id="Tracé_121" data-name="Tracé 121" d="M74.54,106.8c-.891-.274-1.771-.553-2.65-.832C72.769,106.251,73.649,106.53,74.54,106.8Z" fill="#ffedb9"/>
      <path id="Tracé_122" data-name="Tracé 122" d="M79.125,108.179q-1.142-.334-2.271-.675Q77.984,107.845,79.125,108.179Z" fill="#ffedb9"/>
      <path id="Tracé_123" data-name="Tracé 123" d="M83.724,109.494c-.686-.192-1.373-.383-2.053-.577C82.352,109.111,83.038,109.3,83.724,109.494Z" fill="#ffedb9"/>
      <path id="Tracé_124" data-name="Tracé 124" d="M109.524,115.811l-.047-.01Z" fill="#ffedb9"/>
      <path id="Tracé_125" data-name="Tracé 125" d="M182.526,6.972q-9.451,2.336-18.594,5.41-1.531.515-3.054,1.049a240.011,240.011,0,0,0-51.3,25.214C147.508,46.728,192.138,51.428,240,51.428A671.2,671.2,0,0,0,337.709,44.5q7.7-1.14,15.118-2.45c6.035-1.065,11.946-2.2,17.686-3.426q-6.967-4.525-14.26-8.576l-.33-.183q-1.445-.8-2.9-1.576-.609-.327-1.221-.65c-.578-.305-1.158-.6-1.739-.905q-1.194-.618-2.4-1.225l-.336-.167A238.224,238.224,0,0,0,271.1,2h-.005L271,1.991q-2.008-.259-4.03-.485l-.787-.085q-1.68-.183-3.367-.343-.578-.054-1.154-.105-1.51-.135-3.026-.252c-.171-.013-.341-.03-.512-.042-.287-.021-.576-.04-.864-.06q-1.424-.1-2.852-.184c-.5-.029-.992-.06-1.489-.086-.937-.05-1.876-.091-2.816-.13-.5-.021-1-.044-1.5-.062-.989-.035-1.981-.06-2.973-.083l-.1,0c-.411-.01-.821-.023-1.232-.031Q242.153,0,240,0c-1.21,0-2.417.016-3.623.033-.2,0-.4,0-.6.006-.415.007-.828.02-1.242.029q-1.508.033-3.012.083c-.447.016-.893.035-1.339.053-1.036.042-2.07.088-3.1.144l-1.069.059q-1.727.1-3.448.224l-.578.04A238.426,238.426,0,0,0,182.526,6.972Z" fill="#c80d96"/>
      <path id="Tracé_126" data-name="Tracé 126" d="M281.748,221.653l8.622,12.716a8.6,8.6,0,0,1-8.744,13.254c-28.186-5.048-58.019-24.37-103.657-27.463l0,.007q-13.123-1.162-25.646-2.8a240.265,240.265,0,0,0-8.234,56.311l.063.009a.191.191,0,0,1,0,.024A729.427,729.427,0,0,0,240,279.848c105.42,0,196.406-21.144,239.553-51.787.2,3.968.449,7.922.449,11.939,0-1.846-.028-3.686-.07-5.522-.013-.577-.031-1.153-.049-1.729q-.059-1.947-.148-3.885c-.029-.623-.054-1.247-.088-1.868q-.133-2.491-.315-4.972c-.058-.77-.127-1.536-.192-2.3-.084-1-.169-1.994-.265-2.987s-.2-1.955-.3-2.93c-.073-.669-.151-1.336-.229-2a239.542,239.542,0,0,0-8.751-41.824C437.351,196.75,366.957,216.684,281.748,221.653Z" fill="#e96ac8"/>
      <path id="Tracé_127" data-name="Tracé 127" d="M.606,223.781c.087-1.3.188-2.593.3-3.886.438-5.25.986-10.468,1.757-15.616.007-.051.012-.1.02-.153.822-5.459,1.864-10.844,3.047-16.177.184-.833.382-1.661.575-2.49,1.218-5.225,2.561-10.4,4.111-15.493,26.222,21.782,77.7,39.023,141.864,47.378A238.455,238.455,0,0,1,176.132,160l-.641-.062q-2.955-.273-5.88-.572c-.847-.086-1.689-.176-2.532-.265q-2.164-.229-4.313-.471c-.844-.1-1.688-.189-2.527-.288q-2.646-.309-5.263-.639c-.619-.078-1.239-.155-1.856-.234q-2.853-.367-5.67-.758c-.8-.111-1.591-.225-2.385-.338q-2.1-.3-4.177-.612c-.793-.119-1.587-.238-2.375-.36q-2.583-.4-5.134-.819c-.541-.089-1.083-.177-1.622-.267q-2.753-.461-5.465-.944c-.743-.132-1.48-.268-2.219-.4q-2.029-.37-4.037-.752c-.729-.139-1.46-.277-2.185-.419q-2.541-.5-5.046-1.011c-.419-.086-.839-.172-1.256-.259q-2.681-.56-5.313-1.142c-.67-.148-1.334-.3-2-.449q-1.966-.442-3.906-.9c-.66-.155-1.322-.31-1.978-.467q-2.482-.6-4.922-1.21c-.3-.076-.605-.151-.906-.228q-2.579-.657-5.1-1.338c-.6-.163-1.2-.328-1.8-.492q-1.879-.515-3.729-1.042c-.587-.167-1.176-.334-1.758-.5q-2.408-.7-4.767-1.417l-.566-.172c-1.639-.5-3.253-1.016-4.853-1.534-.536-.174-1.065-.349-1.6-.524q-1.773-.585-3.513-1.181c-.519-.178-1.04-.355-1.555-.535-1.525-.532-3.035-1.069-4.519-1.615l-.317-.115c-1.529-.564-3.029-1.137-4.513-1.715-.474-.184-.94-.371-1.41-.557q-1.635-.648-3.233-1.307c-.457-.189-.917-.377-1.369-.567-1.411-.592-2.805-1.189-4.17-1.794l-.183-.081c-1.385-.615-2.738-1.239-4.075-1.868-.415-.195-.823-.392-1.234-.589q-1.475-.705-2.908-1.422c-.4-.2-.8-.4-1.193-.6-1.266-.644-2.514-1.292-3.73-1.948l-.07-.036h0A240.049,240.049,0,0,1,47.274,96.974l.057.023c.954-1.278,1.906-2.558,2.883-3.818.372-.479.75-.954,1.124-1.43q3.792-4.818,7.819-9.437c.346-.4.685-.8,1.033-1.192A241.606,241.606,0,0,1,90.025,52.692c.62-.5,1.249-.981,1.874-1.472q4.436-3.486,9.037-6.763c.718-.512,1.432-1.029,2.156-1.533q5.068-3.53,10.32-6.807c.314-.2.62-.4.935-.6q5.957-3.67,12.138-7c.172-.093.352-.176.524-.268,3.718-1.989,7.5-3.867,11.336-5.663,1.039-.486,2.091-.946,3.137-1.418q4.59-2.072,9.279-3.954c1.219-.489,2.438-.976,3.667-1.445,2.133-.815,4.287-1.584,6.45-2.336q1.522-.534,3.054-1.049c.1-.033.2-.069.3-.1,1.013-.337,2.013-.7,3.032-1.026C171.6,9.875,175.98,8.6,180.42,7.462c.359-.092.727-.16,1.086-.25.338-.085.681-.157,1.021-.241A238.431,238.431,0,0,1,221.991.67c-.231.017-.463.032-.694.05q-2.622.2-5.225.464c-.43.042-.859.087-1.288.132-1.731.181-3.458.375-5.178.592-.246.031-.49.066-.735.1q-2.306.3-4.6.643c-.446.067-.893.132-1.338.2q-2.445.38-4.873.807c-.485.085-.968.176-1.452.264q-2.061.376-4.111.787c-.382.077-.766.149-1.147.227-1.552.32-3.1.66-4.638,1.01q-.885.2-1.767.407-2.232.523-4.448,1.085c-.573.146-1.143.3-1.714.451q-1.606.423-3.2.867c-.65.181-1.3.359-1.95.546q-2.038.585-4.061,1.208c-.746.229-1.49.464-2.232.7q-1.317.419-2.628.853-1.771.585-3.53,1.2-1.128.391-2.251.793-1.293.464-2.579.94c-.653.243-1.3.494-1.954.742q-2.169.828-4.317,1.7-.7.283-1.4.571-2.895,1.193-5.753,2.456l-.212.093q-1.6.713-3.2,1.448l-.261.122q-3.154,1.461-6.258,3.01l-.072.036A240.152,240.152,0,0,0,1.659,211.791c-.079.671-.157,1.342-.23,2.015-.105.973-.208,1.946-.3,2.923-.1,1-.182,2-.266,3-.064.763-.134,1.524-.191,2.288Q.486,224.5.355,226.994c-.033.622-.059,1.246-.088,1.869Q.177,230.8.12,232.748c-.017.576-.036,1.151-.049,1.729C.028,236.313,0,238.153,0,240,0,234.543.246,229.146.606,223.781Z" fill="#e96ac8"/>
      <path id="Tracé_128" data-name="Tracé 128" d="M240,279.848a729.584,729.584,0,0,1-95.845-6.14C144.1,275.8,144,277.89,144,280a241.038,241.038,0,0,0,3.352,39.488c-61.537-8.544-110.926-25.3-136.581-46.354,25.634,21.069,74.95,37.861,136.478,46.406A678.472,678.472,0,0,0,240,325.715c113.366,0,208.937-26.179,238.82-61.955.769-7.818,1.18-15.74,1.18-23.759,0-4.017-.25-7.971-.446-11.939C436.406,258.7,345.42,279.848,240,279.848Z" fill="#d936ae"/>
      <path id="Tracé_129" data-name="Tracé 129" d="M1.18,263.76c-.006-.063-.009-.126-.015-.189Q.6,257.808.3,251.97C.108,248,0,244.015,0,240c0,8.019.411,15.942,1.18,23.76Z" fill="#ff7400"/>
      <path id="Tracé_130" data-name="Tracé 130" d="M3.047,265.878c-.644-.7-1.271-1.406-1.864-2.115C1.776,264.472,2.4,265.177,3.047,265.878Z" fill="#ff7400"/>
      <path id="Tracé_131" data-name="Tracé 131" d="M7.9,270.668q-1.173-1.055-2.269-2.122Q6.726,269.614,7.9,270.668Z" fill="#ff7400"/>
      <path id="Tracé_132" data-name="Tracé 132" d="M5.322,268.236q-.906-.9-1.755-1.8Q4.416,267.339,5.322,268.236Z" fill="#ff7400"/>
      <path id="Tracé_133" data-name="Tracé 133" d="M10.5,272.909q-1.156-.957-2.247-1.927Q9.346,271.951,10.5,272.909Z" fill="#ff7400"/>
      <path id="Tracé_134" data-name="Tracé 134" d="M436.04,378.364a238.91,238.91,0,0,0,34.614-72.081c-23.084,19.768-66.9,35.888-122.187,45.147l-31.322,4.361A692.941,692.941,0,0,1,240,360a687.164,687.164,0,0,1-84.039-5.023,238.246,238.246,0,0,0,14.5,34.423c-4.285-2.085-8.517-4.161-12.69-6.152,4.122,1.967,8.3,4.018,12.534,6.077,22.1,10.756,45.617,21.739,69.693,22.1C319.685,412.636,390.552,398.475,436.04,378.364Z" fill="#e8d0e1"/>
      <path id="Tracé_135" data-name="Tracé 135" d="M143.784,376.911c-.359-.151-.717-.3-1.074-.447C143.067,376.612,143.425,376.76,143.784,376.911Z" fill="#ffedb9"/>
      <path id="Tracé_136" data-name="Tracé 136" d="M141.881,376.124q-.519-.211-1.036-.418C141.19,375.844,141.535,375.982,141.881,376.124Z" fill="#ffedb9"/>
      <path id="Tracé_137" data-name="Tracé 137" d="M138.122,374.641c-.328-.125-.654-.246-.981-.368C137.468,374.395,137.794,374.516,138.122,374.641Z" fill="#ffedb9"/>
      <path id="Tracé_138" data-name="Tracé 138" d="M145.7,377.726c-.375-.162-.75-.321-1.124-.48Q145.136,377.483,145.7,377.726Z" fill="#ffedb9"/>
      <path id="Tracé_139" data-name="Tracé 139" d="M140,375.367c-.337-.133-.673-.263-1.008-.393Z" fill="#ffedb9"/>
      <path id="Tracé_140" data-name="Tracé 140" d="M147.626,378.566q-.588-.26-1.175-.514Q147.039,378.307,147.626,378.566Z" fill="#ffedb9"/>
      <path id="Tracé_141" data-name="Tracé 141" d="M151.527,380.321q-.648-.3-1.294-.589Q150.88,380.024,151.527,380.321Z" fill="#ffedb9"/>
      <path id="Tracé_142" data-name="Tracé 142" d="M149.564,379.43c-.41-.185-.819-.367-1.228-.549C148.745,379.063,149.154,379.245,149.564,379.43Z" fill="#ffedb9"/>
      <path id="Tracé_143" data-name="Tracé 143" d="M125.339,370.555c-.3-.075-.6-.144-.906-.216C124.735,370.411,125.036,370.48,125.339,370.555Z" fill="#ffedb9"/>
      <path id="Tracé_144" data-name="Tracé 144" d="M123.559,370.134c-.306-.069-.61-.131-.915-.2C122.949,370,123.253,370.065,123.559,370.134Z" fill="#ffedb9"/>
      <path id="Tracé_145" data-name="Tracé 145" d="M127.126,371.019c-.3-.081-.6-.156-.893-.234C126.531,370.863,126.828,370.939,127.126,371.019Z" fill="#ffedb9"/>
      <path id="Tracé_146" data-name="Tracé 146" d="M153.525,381.244q-.708-.33-1.413-.654Q152.817,380.916,153.525,381.244Z" fill="#ffedb9"/>
      <path id="Tracé_147" data-name="Tracé 147" d="M128.932,371.528c-.3-.088-.6-.171-.9-.255C128.332,371.357,128.632,371.44,128.932,371.528Z" fill="#ffedb9"/>
      <path id="Tracé_148" data-name="Tracé 148" d="M134.409,373.287c-.313-.109-.624-.214-.936-.32C133.785,373.073,134.1,373.178,134.409,373.287Z" fill="#ffedb9"/>
      <path id="Tracé_149" data-name="Tracé 149" d="M136.261,373.947c-.32-.117-.64-.23-.959-.344C135.621,373.717,135.941,373.83,136.261,373.947Z" fill="#ffedb9"/>
      <path id="Tracé_150" data-name="Tracé 150" d="M130.747,372.076c-.307-.1-.612-.187-.918-.279C130.135,371.889,130.441,371.98,130.747,372.076Z" fill="#ffedb9"/>
      <path id="Tracé_151" data-name="Tracé 151" d="M132.573,372.663c-.31-.1-.619-.2-.928-.3C131.954,372.462,132.262,372.56,132.573,372.663Z" fill="#ffedb9"/>
      <path id="Tracé_152" data-name="Tracé 152" d="M105.773,371.005c1.1-1.553,2.891-2.488,5.655-2.434q.848.016,1.7.063c-.569-.03-1.135-.052-1.7-.063C108.665,368.517,106.874,369.452,105.773,371.005Z" fill="#ffedb9"/>
      <path id="Tracé_153" data-name="Tracé 153" d="M105.971,386.486c.271.94.56,1.865.858,2.761C106.531,388.351,106.241,387.426,105.971,386.486Z" fill="#ffedb9"/>
      <path id="Tracé_154" data-name="Tracé 154" d="M14.426,310.336c.084.062.165.125.249.187C14.591,310.461,14.51,310.4,14.426,310.336Z" fill="#ffedb9"/>
      <path id="Tracé_155" data-name="Tracé 155" d="M17.344,312.428c.121.084.244.167.366.25C17.589,312.6,17.465,312.512,17.344,312.428Z" fill="#ffedb9"/>
      <path id="Tracé_156" data-name="Tracé 156" d="M110.351,398.177c.149.325.257.554.312.67C110.608,398.731,110.5,398.5,110.351,398.177Z" fill="#ffedb9"/>
      <path id="Tracé_157" data-name="Tracé 157" d="M11.648,308.2c.192.153.386.306.58.459C12.034,308.5,11.84,308.348,11.648,308.2Z" fill="#ffedb9"/>
      <path id="Tracé_158" data-name="Tracé 158" d="M9.352,306.3h0A238.9,238.9,0,0,0,43.982,378.4a298.583,298.583,0,0,0,40.849,14.271,298.576,298.576,0,0,1-40.849-14.272A238.91,238.91,0,0,1,9.352,306.3Z" fill="#ffedb9"/>
      <path id="Tracé_159" data-name="Tracé 159" d="M20.4,314.475l.135.089Z" fill="#ffedb9"/>
      <path id="Tracé_160" data-name="Tracé 160" d="M121.793,369.76c-.311-.062-.62-.117-.93-.175C121.173,369.642,121.482,369.7,121.793,369.76Z" fill="#ffedb9"/>
      <path id="Tracé_161" data-name="Tracé 161" d="M105.3,383.921c.2.859.429,1.718.673,2.565C105.727,385.639,105.5,384.781,105.3,383.921Z" fill="#ffedb9"/>
      <path id="Tracé_162" data-name="Tracé 162" d="M155.529,382.183q-.771-.365-1.54-.722Q154.758,381.82,155.529,382.183Z" fill="#ffedb9"/>
      <path id="Tracé_163" data-name="Tracé 163" d="M120.036,369.432c-.316-.055-.631-.1-.946-.152C119.4,369.33,119.719,369.377,120.036,369.432Z" fill="#ffedb9"/>
      <path id="Tracé_164" data-name="Tracé 164" d="M157.56,383.146q-.839-.4-1.673-.794Q156.723,382.746,157.56,383.146Z" fill="#ffedb9"/>
      <path id="Tracé_165" data-name="Tracé 165" d="M118.292,369.154c-.325-.047-.647-.086-.971-.128C117.644,369.067,117.967,369.106,118.292,369.154Z" fill="#ffedb9"/>
      <path id="Tracé_166" data-name="Tracé 166" d="M116.557,368.927c-.355-.041-.708-.073-1.061-.108C115.85,368.853,116.2,368.885,116.557,368.927Z" fill="#ffedb9"/>
      <path id="Tracé_167" data-name="Tracé 167" d="M105.353,371.7a7.851,7.851,0,0,0-.65,1.692A7.819,7.819,0,0,1,105.353,371.7Z" fill="#ffedb9"/>
      <path id="Tracé_168" data-name="Tracé 168" d="M114.84,368.753c-.413-.035-.824-.061-1.235-.086C114.015,368.692,114.426,368.718,114.84,368.753Z" fill="#ffedb9"/>
      <path id="Tracé_169" data-name="Tracé 169" d="M251.461,479.721c.769-.036,1.536-.08,2.3-.123q1.688-.1,3.37-.214c.822-.058,1.643-.118,2.463-.185,1.054-.085,2.1-.181,3.154-.28.858-.081,1.716-.158,2.571-.248.982-.1,1.959-.221,2.938-.336q5.793-.681,11.5-1.633c.5-.084,1-.162,1.505-.249,1.3-.225,2.59-.466,3.881-.712.43-.082.861-.163,1.291-.247q2.063-.4,4.114-.845l.779-.17A239.237,239.237,0,0,0,388.08,428.8C346.706,439.4,295.517,445.713,240,445.713q-15.258,0-30.044-.625a241.234,241.234,0,0,0,40.716,34.455C247.115,479.7,243.6,480,240,480c1.922,0,3.837-.028,5.748-.073.644-.015,1.285-.042,1.928-.062C248.94,479.825,250.2,479.781,251.461,479.721Z" fill="#d936ae"/>
      <path id="Tracé_170" data-name="Tracé 170" d="M221.2,479.2c-1.052-.082-2.109-.145-3.157-.24q-8.986-.818-17.773-2.291c-.97-.162-1.932-.344-2.9-.518a237.981,237.981,0,0,1-36.335-9.509c-.373-.129-.751-.248-1.123-.38q-8.885-3.152-17.437-6.976c-.362-.161-.722-.327-1.083-.49a240.881,240.881,0,0,1-31.61-17.249,238.7,238.7,0,0,0,78.9,32.937l.762.166q2.058.443,4.128.848c.424.083.848.163,1.273.244,1.295.247,2.593.488,3.9.715.495.086.993.164,1.489.247q5.72.957,11.527,1.636c.972.114,1.943.231,2.918.334.859.09,1.721.168,2.583.249,1.046.1,2.093.194,3.143.279q1.231.1,2.468.185,1.682.119,3.369.214c.767.043,1.534.087,2.3.123,1.259.059,2.521.1,3.785.144.643.02,1.284.047,1.928.062,1.911.045,3.826.073,5.749.073C233.665,480,227.408,479.679,221.2,479.2Z" fill="#ff7400"/>
      <path id="Tracé_171" data-name="Tracé 171" d="M98.7,430.47l-.91-.219Z" fill="#ff7400"/>
      <path id="Tracé_172" data-name="Tracé 172" d="M104.895,431.9l-.02,0Z" fill="#ff7400"/>
      <path id="Tracé_173" data-name="Tracé 173" d="M91.92,428.8h0Z" fill="#ff7400"/>
      <path id="Tracé_174" data-name="Tracé 174" d="M98.265,433.6q5.418,3.975,11.061,7.649Q103.682,437.577,98.265,433.6Z" fill="#ff7400"/>
      <path id="Tracé_175" data-name="Tracé 175" d="M91.926,428.8c1.7,1.333,3.418,2.635,5.151,3.922Q94.478,430.793,91.926,428.8Z" fill="#ff7400"/>
      <path id="Tracé_176" data-name="Tracé 176" d="M144.092,273.674a240.274,240.274,0,0,1,8.234-56.311l0-.012-.053-.007c-64.163-8.355-115.642-25.6-141.864-47.378-1.55,5.089-2.893,10.267-4.111,15.493-.193.83-.391,1.657-.575,2.49-1.183,5.333-2.225,10.718-3.047,16.177-.007.051-.012.1-.02.153C1.888,209.427,1.34,214.646.9,219.9c-.107,1.293-.209,2.587-.3,3.886C.246,229.146,0,234.543,0,240c0-4.017.25-7.971.447-11.938C29.746,248.868,81.136,265.272,144.092,273.674Z" fill="#d936ae"/>
      <path id="Tracé_177" data-name="Tracé 177" d="M1.166,263.571c.006.063.008.126.015.189h0l0,0c.593.709,1.22,1.413,1.864,2.115.171.186.345.371.519.557q.85.9,1.755,1.8c.1.1.2.207.31.311q1.094,1.068,2.269,2.122c.116.105.237.209.355.313q1.092.969,2.247,1.927c.09.075.178.15.27.224,25.655,21.06,75.044,37.81,136.581,46.354A240.82,240.82,0,0,1,144,280c0-2.11.1-4.2.155-6.292a.191.191,0,0,1,0-.024l-.063-.009C81.138,265.273,29.747,248.869.448,228.062.25,232.029,0,235.983,0,240s.108,8,.3,11.97Q.6,257.808,1.166,263.571Z" fill="#c80d96"/>
      <path id="Tracé_178" data-name="Tracé 178" d="M176.153,160a240.271,240.271,0,0,1,22.7-32.6.027.027,0,0,1,.007-.008l-.031,0a597.057,597.057,0,0,1-89.3-11.574l-.047-.01q-2.12-.452-4.208-.919l-.925-.207q-1.949-.438-3.872-.889l-1.032-.245q-5.86-1.388-11.472-2.888c-.48-.128-.965-.254-1.442-.384-.942-.255-1.872-.515-2.8-.775q-1.03-.287-2.053-.577-1.281-.366-2.547-.738-1.142-.334-2.271-.675c-.774-.232-1.548-.465-2.314-.7-.891-.274-1.771-.553-2.65-.832-.622-.2-1.25-.391-1.865-.591q-2.165-.7-4.28-1.417c-.5-.168-.983-.341-1.476-.51-.984-.339-1.965-.68-2.932-1.025-.555-.2-1.1-.4-1.653-.6q-1.361-.5-2.7-1-.8-.3-1.585-.6-1.425-.544-2.82-1.1c-.434-.172-.872-.342-1.3-.515q-2.028-.814-4-1.646c-.011.014-.02.029-.03.043-2.9,3.9-5.648,7.908-8.3,11.987-.383.586-.756,1.179-1.134,1.769-2.59,4.06-5.09,8.184-7.445,12.4l-.006.009h0l.07.037c1.216.656,2.464,1.3,3.73,1.948.394.2.795.4,1.193.6q1.434.715,2.908,1.422c.411.2.819.394,1.234.589,1.337.629,2.69,1.252,4.075,1.868.061.027.123.053.183.081,1.365.6,2.759,1.2,4.17,1.794.453.19.912.378,1.369.567q1.6.658,3.233,1.307c.469.186.936.372,1.41.557,1.484.578,2.984,1.151,4.513,1.715l.317.115q2.228.819,4.519,1.615c.515.18,1.036.357,1.555.535q1.74.6,3.513,1.181c.531.175,1.06.351,1.6.524,1.6.518,3.214,1.031,4.853,1.534l.566.172q2.356.719,4.767,1.417c.583.169,1.171.336,1.758.5q1.85.526,3.729,1.042c.6.164,1.2.329,1.8.492q2.527.68,5.1,1.338c.3.077.6.152.906.228q2.438.615,4.922,1.21c.656.157,1.317.312,1.978.467q1.939.456,3.906.9c.666.15,1.33.3,2,.449q2.636.582,5.313,1.142c.417.087.838.173,1.256.259q2.5.516,5.046,1.011c.725.142,1.456.28,2.185.419q2.007.383,4.037.752c.739.135,1.476.27,2.219.4q2.714.483,5.465.944c.539.09,1.081.178,1.622.267q2.552.419,5.134.819c.789.122,1.583.24,2.375.36q2.079.312,4.177.612c.794.113,1.587.228,2.385.338q2.818.39,5.67.758c.617.079,1.237.156,1.856.234q2.617.328,5.263.639c.839.1,1.684.193,2.527.288q2.148.243,4.313.471c.843.089,1.685.179,2.532.265q2.925.3,5.88.572C175.712,159.957,175.931,159.979,176.153,160Z" fill="#f5b9e5"/>
      <path id="Tracé_179" data-name="Tracé 179" d="M250.672,479.544a241.279,241.279,0,0,1-40.716-34.455c-.023-.025-.048-.048-.071-.073l-.124-.006C171.446,443.4,135.8,438.815,104.9,431.9l-.02,0q-3.123-.7-6.178-1.43l-.91-.219q-2.961-.714-5.863-1.453h0l.006,0c1.7,1.333,3.418,2.635,5.151,3.922q.592.439,1.188.876,5.419,3.972,11.061,7.649l.458.3a240.945,240.945,0,0,0,31.61,17.249c.361.163.72.329,1.083.49q8.549,3.814,17.437,6.976c.372.132.75.25,1.123.38a238.042,238.042,0,0,0,36.335,9.509c.965.173,1.927.356,2.9.518q8.782,1.469,17.773,2.291c1.048.1,2.1.158,3.157.24,6.208.48,12.465.8,18.8.8C243.6,480,247.115,479.7,250.672,479.544Z" fill="#c80d96"/>
      <path id="Tracé_180" data-name="Tracé 180" d="M168,416c.5-11.5-6.333-18.333-16-24-12.208-7.156-33.5-12-32,0S167.5,427.5,168,416Z" fill="#f5b9e5"/>
      <ellipse id="Ellipse_2" data-name="Ellipse 2" cx="12" cy="8" rx="12" ry="8" transform="translate(240 208)" fill="#e96ac8"/>
    </g>
  </g>
</svg>
