<svg xmlns="http://www.w3.org/2000/svg" xmlns:xlink="http://www.w3.org/1999/xlink" width="512" height="512" viewBox="0 0 512 512">
  <defs>
    <clipPath id="clip-mars">
      <rect width="512" height="512"/>
    </clipPath>
  </defs>
  <g id="mars" clip-path="url(#clip-mars)">
    <g id="planet_1_" data-name="planet (1)" transform="translate(496 16.997) rotate(90)">
      <path id="Tracé_290" data-name="Tracé 290" d="M363.249,74.365c79.765,79.658,79.823,208.905.129,288.635s-208.941,79.729-288.635,0-79.636-208.976.129-288.635c79.892-79.007,208.486-79.007,288.377,0Z" transform="translate(20.635 20.651)" fill="#f3d55b"/>
      <g id="Groupe_5" data-name="Groupe 5" transform="translate(36.228 36.138)">
        <path id="Tracé_291" data-name="Tracé 291" d="M22.814,198.8c-2.582,2.124-5.123,4.207-7.664,6.248A204.038,204.038,0,0,1,199.332,15.2,1127.968,1127.968,0,0,1,22.814,198.8Z" transform="translate(-15.15 -15.2)" fill="#f3ba33"/>
        <path id="Tracé_292" data-name="Tracé 292" d="M329.014,46.033A1119.3,1119.3,0,0,1,110.719,288.36c-21.117,17.41-41.86,32.863-62.6,46.775a202.289,202.289,0,0,1-30.7-59.228q22.742-16.119,45.733-35.112A1122.139,1122.139,0,0,0,268.911,16.96a201.009,201.009,0,0,1,60.1,29.073Z" transform="translate(-7.965 -9.629)" fill="#f3ba33"/>
        <path id="Tracé_293" data-name="Tracé 293" d="M262.819,63.28C264.534,174.527,176.8,266.635,65.6,270.329A1126.984,1126.984,0,0,1,254.739,69.861C257.446,67.612,260.154,65.446,262.819,63.28Z" transform="translate(144.531 136.98)" fill="#f3ba33"/>
      </g>
      <path id="Tracé_294" data-name="Tracé 294" d="M485.4,27.492a24.512,24.512,0,0,0-5.473-15.653c-15.7-17.61-76.3,10.592-136.983,54.288,19.905-8.068,46.037-21.659,55.7-10.113a21.363,21.363,0,0,1,4.673,12.141A74.792,74.792,0,0,1,397.8,98.562c-15.669,43.609-62.123,110.876-125.308,177.177l-.621.616-.616.616C204.8,339.4,138.953,383.636,97.564,396.7a59.2,59.2,0,0,1-28.373,3.253,18.423,18.423,0,0,1-10.721-6.135c-9.73-11.479-1.333-30.718,7.839-51.527-45.5,61.732-70.358,116.945-55.6,135.5A20.9,20.9,0,0,0,24.558,485.1c9.513,1.449,22.292-.775,37.649-6.294C117.64,459.146,207.153,397,298.494,311.234c.512-.508,1.016-.937,1.529-1.445s.95-1.016,1.458-1.524c86.822-91.15,151.8-182.412,174.782-240.612,6.431-16.119,9.613-29.739,9.134-40.16Z" transform="translate(-6.452 -6.524)" fill="#ebf28e"/>
    </g>
  </g>
</svg>
