<svg xmlns="http://www.w3.org/2000/svg" xmlns:xlink="http://www.w3.org/1999/xlink" width="512" height="512" viewBox="0 0 512 512">
  <defs>
    <clipPath id="clip-planet">
      <rect width="512" height="512"/>
    </clipPath>
  </defs>
  <g id="planet" clip-path="url(#clip-planet)">
    <g id="planet-2" data-name="planet" transform="translate(28 27.821)">
      <path id="Tracé_237" data-name="Tracé 237" d="M387.241,387.095c-59.048,59.316-149.892,75.347-226.04,40.078L427.319,161.055C462.587,237.2,446.557,328.047,387.241,387.095Z" transform="translate(-17.631 -17.599)" fill="#ff9f00"/>
      <path id="Tracé_238" data-name="Tracé 238" d="M387.241,403.435c-59.048,59.317-149.892,75.347-226.04,40.078L294.259,310.455Z" transform="translate(-17.631 -33.94)" fill="#ff7816"/>
      <path id="Tracé_239" data-name="Tracé 239" d="M426.818,128.136C398.229,178.634,350.372,237.772,294,293.881,237.886,350.258,179.1,397.015,128.606,425.6c-10.492,5.967-23.969,13.683-37.489,19.169-28.847,11.7-60.714,17.848-79.087-.525-18.8-18.8-13.359-50.962,1.229-84.431,8.844-20.28,21.654-42.04,33.855-60.592L173.226,173.112,299.339,47a476.314,476.314,0,0,1,47.323-27.342c38.056-18.97,76.5-28.776,97.791-7.481C464.492,32.217,458.346,72.295,426.818,128.136Z" transform="translate(0 0)" fill="#ffd400"/>
      <path id="Tracé_240" data-name="Tracé 240" d="M294,315.123C237.886,371.5,179.1,418.257,128.606,446.846c-10.492,5.967-23.969,13.683-37.489,19.169-28.847,11.7-60.714,17.848-79.087-.525-18.8-18.8-13.359-50.962,1.229-84.431,8.844-20.28,21.654-42.04,33.855-60.592L173.226,194.354Z" transform="translate(0 -21.242)" fill="#fdbf00"/>
      <path id="Tracé_241" data-name="Tracé 241" d="M373.008,89.644c-78.018-78.286-205.2-78.286-283.218,0-78.286,78.018-78.286,205.2,0,283.218l9.886,9.886,8.55-4.809c47.025-25.649,101-67.6,151.494-118.364,50.767-50.5,92.715-104.469,118.364-151.494l4.809-8.55Z" transform="translate(-3.399 -3.367)" fill="#ff9f00"/>
      <path id="Tracé_242" data-name="Tracé 242" d="M259.721,266.785c-50.5,50.766-104.469,92.715-151.494,118.364l-8.55,4.809-9.886-9.886c-78.286-78.018-78.286-205.2,0-283.218Z" transform="translate(-3.399 -10.577)" fill="#ff7816"/>
      <path id="Tracé_243" data-name="Tracé 243" d="M237.1,125.452c-15.23-15.23-41.681-15.23-56.644,0A38.533,38.533,0,0,0,170.3,164.194a35.173,35.173,0,0,0,9.886,17.9,41.05,41.05,0,0,0,56.911,0A40.32,40.32,0,0,0,237.1,125.452Z" transform="translate(-18.45 -12.456)" fill="#fdbf00"/>
      <rect id="Rectangle_2" data-name="Rectangle 2" width="26.719" height="26.719" transform="translate(107.766 214.524)" fill="#ff9f00"/>
      <rect id="Rectangle_3" data-name="Rectangle 3" width="26.719" height="26.719" transform="translate(268.078 107.649)" fill="#fdbf00"/>
      <path id="Tracé_244" data-name="Tracé 244" d="M180.387,188.257a35.173,35.173,0,0,1-9.886-17.9l28.055,28.055A39.871,39.871,0,0,1,180.387,188.257Z" transform="translate(-18.649 -18.617)" fill="#ff9f00"/>
    </g>
  </g>
</svg>
