<svg xmlns="http://www.w3.org/2000/svg" xmlns:xlink="http://www.w3.org/1999/xlink" width="512" height="512" viewBox="0 0 512 512">
  <defs>
    <clipPath id="clip-pluto">
      <rect width="512" height="512"/>
    </clipPath>
  </defs>
  <g id="pluto" clip-path="url(#clip-pluto)">
    <g id="uranus" transform="translate(11 10.015)">
      <path id="Tracé_252" data-name="Tracé 252" d="M70.679,338.457q-.776-1.568-1.524-3.151c-.149-.315-.295-.631-.442-.947q-.717-1.54-1.411-3.093c-.153-.345-.3-.694-.455-1.04-.447-1.022-.89-2.044-1.319-3.075-.15-.359-.295-.722-.442-1.082-.422-1.03-.842-2.062-1.248-3.1-.132-.339-.258-.681-.387-1.021-.412-1.072-.821-2.146-1.214-3.227-.07-.194-.136-.39-.206-.585q-1.74-4.839-3.227-9.794c-10.645,10.35-15.438,19.05-12.947,25.166s12.01,8.983,26.856,8.948q-.833-1.591-1.636-3.2C70.943,338.993,70.811,338.725,70.679,338.457Z" transform="translate(-1.097 -6.251)" fill="none"/>
      <path id="Tracé_253" data-name="Tracé 253" d="M454.842,167.023c-2.492-6.117-12.005-8.99-26.859-8.953a193.952,193.952,0,0,1,13.911,34.114C452.534,181.837,457.333,173.136,454.842,167.023Z" transform="translate(-10.384 -2.605)" fill="none"/>
      <path id="Tracé_254" data-name="Tracé 254" d="M360.038,102.9a194.915,194.915,0,0,0-160.35,83.918q10.76-4.7,21.885-9.245c68.387-27.861,133.407-45.07,182.78-50.254A195.338,195.338,0,0,0,301.135,57.794a195.017,195.017,0,0,1,82.48,46.576A196.881,196.881,0,0,0,360.038,102.9Z" transform="translate(-4.845 -0.172)" fill="#70ff88"/>
      <path id="Tracé_255" data-name="Tracé 255" d="M90.06,369.828c-.564-.758-1.116-1.525-1.669-2.292Q89.218,368.688,90.06,369.828Z" transform="translate(-2.145 -7.687)" fill="#708aff"/>
      <path id="Tracé_256" data-name="Tracé 256" d="M285.187,53.664c1.173.2,2.341.423,3.507.649C287.528,54.088,286.36,53.868,285.187,53.664Z" transform="translate(-6.919 -0.072)" fill="#708aff"/>
      <path id="Tracé_257" data-name="Tracé 257" d="M289.9,54.544q1.875.373,3.734.785C292.4,55.057,291.154,54.793,289.9,54.544Z" transform="translate(-7.034 -0.094)" fill="#708aff"/>
      <path id="Tracé_258" data-name="Tracé 258" d="M299.141,56.613q2.118.528,4.217,1.1Q301.258,57.141,299.141,56.613Z" transform="translate(-7.258 -0.144)" fill="#708aff"/>
      <path id="Tracé_259" data-name="Tracé 259" d="M433.656,192.232l.048-.048a193.894,193.894,0,0,0-13.911-34.114c-37.689.095-109.779,18.942-188.951,51.2-20.112,8.193-39.286,16.687-57.154,25.23a195.233,195.233,0,0,0,49.536,207.626,195.037,195.037,0,0,1-132.836-77c.406.544.809,1.091,1.221,1.63A194.82,194.82,0,0,0,246.8,443.591c107.777,0,195.148-87.37,195.148-195.148a197.115,197.115,0,0,0-1.4-23.379l-.022.018A193.817,193.817,0,0,0,433.656,192.232Z" transform="translate(-2.193 -2.605)" fill="#70ff88"/>
      <path id="Tracé_260" data-name="Tracé 260" d="M69.75,335.978q.748,1.584,1.524,3.151Q70.5,337.56,69.75,335.978Z" transform="translate(-1.692 -6.922)" fill="#708aff"/>
      <path id="Tracé_261" data-name="Tracé 261" d="M66.033,327.62c.429,1.03.872,2.053,1.319,3.075C66.905,329.673,66.462,328.649,66.033,327.62Z" transform="translate(-1.602 -6.719)" fill="#708aff"/>
      <path id="Tracé_262" data-name="Tracé 262" d="M64.3,323.333c.4,1.039.825,2.071,1.248,3.1C65.126,325.4,64.706,324.372,64.3,323.333Z" transform="translate(-1.56 -6.615)" fill="#708aff"/>
      <path id="Tracé_263" data-name="Tracé 263" d="M62.66,318.981c.393,1.081.8,2.154,1.214,3.227C63.462,321.135,63.052,320.062,62.66,318.981Z" transform="translate(-1.52 -6.509)" fill="#708aff"/>
      <path id="Tracé_264" data-name="Tracé 264" d="M86.961,365.531c-.075-.106-.148-.214-.223-.321Z" transform="translate(-2.104 -7.631)" fill="#708aff"/>
      <path id="Tracé_265" data-name="Tracé 265" d="M67.851,331.837q.691,1.554,1.411,3.093Q68.545,333.389,67.851,331.837Z" transform="translate(-1.646 -6.821)" fill="#708aff"/>
      <path id="Tracé_266" data-name="Tracé 266" d="M59.143,308.342h0q1.488,4.953,3.227,9.794Q60.627,313.3,59.143,308.342Z" transform="translate(-1.435 -6.251)" fill="#708aff"/>
      <path id="Tracé_267" data-name="Tracé 267" d="M294.554,55.528q1.993.446,3.972.936Q296.547,55.976,294.554,55.528Z" transform="translate(-7.146 -0.117)" fill="#708aff"/>
      <path id="Tracé_268" data-name="Tracé 268" d="M51.409,267.584c-.058-.682-.118-1.364-.169-2.048C51.291,266.22,51.351,266.9,51.409,267.584Z" transform="translate(-1.243 -5.213)" fill="#708aff"/>
      <path id="Tracé_269" data-name="Tracé 269" d="M265.767,51.254c.87.065,1.737.147,2.6.223C267.5,51.4,266.638,51.318,265.767,51.254Z" transform="translate(-6.448 -0.014)" fill="#708aff"/>
      <path id="Tracé_270" data-name="Tracé 270" d="M50.812,257.284c-.018-.539-.044-1.075-.057-1.616C50.768,256.209,50.794,256.745,50.812,257.284Z" transform="translate(-1.231 -4.973)" fill="#708aff"/>
      <path id="Tracé_271" data-name="Tracé 271" d="M260.784,50.943c.773.038,1.541.094,2.312.141C262.325,51.038,261.557,50.982,260.784,50.943Z" transform="translate(-6.327 -0.006)" fill="#708aff"/>
      <path id="Tracé_272" data-name="Tracé 272" d="M255.759,50.755c.618.016,1.23.047,1.846.068C256.988,50.8,256.376,50.77,255.759,50.755Z" transform="translate(-6.205 -0.002)" fill="#708aff"/>
      <path id="Tracé_273" data-name="Tracé 273" d="M73.356,343.226h0q-.831-1.589-1.636-3.2Q72.525,341.635,73.356,343.226Z" transform="translate(-1.74 -7.02)" fill="#708aff"/>
      <path id="Tracé_274" data-name="Tracé 274" d="M280.413,52.892c1.1.164,2.2.344,3.292.527C282.609,53.236,281.514,53.056,280.413,52.892Z" transform="translate(-6.803 -0.053)" fill="#708aff"/>
      <path id="Tracé_275" data-name="Tracé 275" d="M51.884,272.537c-.077-.706-.155-1.412-.224-2.12C51.729,271.125,51.807,271.831,51.884,272.537Z" transform="translate(-1.253 -5.331)" fill="#708aff"/>
      <path id="Tracé_276" data-name="Tracé 276" d="M275.583,52.231c1.027.128,2.049.271,3.072.416C277.632,52.5,276.61,52.359,275.583,52.231Z" transform="translate(-6.686 -0.037)" fill="#708aff"/>
      <path id="Tracé_277" data-name="Tracé 277" d="M270.7,51.684c.952.095,1.9.206,2.849.315C272.6,51.891,271.652,51.779,270.7,51.684Z" transform="translate(-6.568 -0.024)" fill="#708aff"/>
      <path id="Tracé_278" data-name="Tracé 278" d="M51.05,262.537c-.037-.639-.081-1.277-.112-1.918C50.969,261.26,51.013,261.9,51.05,262.537Z" transform="translate(-1.236 -5.093)" fill="#708aff"/>
      <path id="Tracé_279" data-name="Tracé 279" d="M222.466,444.023A195.233,195.233,0,0,1,172.93,236.4C120.454,261.486,79.3,287,59.143,306.6q1.49,4.953,3.226,9.8c.07.194.136.39.206.584.393,1.081.8,2.154,1.214,3.227.131.34.256.681.387,1.021.4,1.039.825,2.071,1.248,3.1.147.36.292.723.442,1.082q.645,1.546,1.319,3.075c.152.346.3.695.455,1.04q.691,1.554,1.411,3.093c.147.316.294.632.442.947q.748,1.584,1.524,3.151c.133.267.264.535.4.8q.8,1.607,1.636,3.2h.113a200.725,200.725,0,0,0,12.9,21.374c.075.106.148.215.223.321.457.655.925,1.3,1.389,1.949.553.767,1.106,1.534,1.669,2.292.093.125.186.249.279.373A195.042,195.042,0,0,0,222.466,444.023Z" transform="translate(-1.435 -4.506)" fill="#5bdb70"/>
      <path id="Tracé_280" data-name="Tracé 280" d="M196.073,186.648A194.611,194.611,0,0,1,380,104.2a195.017,195.017,0,0,0-82.48-46.576l-.19-.052q-2.1-.574-4.217-1.1c-.168-.042-.336-.081-.5-.123q-1.979-.487-3.972-.936c-.267-.06-.536-.116-.8-.175q-1.862-.41-3.734-.785c-.364-.072-.731-.14-1.1-.21-1.166-.225-2.334-.445-3.507-.649-.454-.079-.911-.15-1.366-.226-1.095-.182-2.191-.363-3.292-.527-.545-.081-1.094-.152-1.641-.229-1.022-.143-2.044-.288-3.072-.416-.637-.079-1.277-.146-1.916-.22-.948-.108-1.9-.22-2.849-.315-.734-.073-1.472-.132-2.208-.2-.867-.076-1.734-.158-2.6-.223-.848-.063-1.7-.109-2.551-.162-.77-.048-1.539-.1-2.312-.141-1.016-.051-2.037-.081-3.058-.116-.616-.02-1.228-.053-1.846-.068q-2.465-.061-4.944-.062c-107.777,0-195.148,87.371-195.148,195.148q0,2.435.061,4.857c.013.54.039,1.076.057,1.616.035,1.073.07,2.147.122,3.215.031.641.075,1.279.112,1.918.057.961.112,1.922.182,2.879.051.684.111,1.366.169,2.048.076.906.152,1.812.241,2.715.069.708.147,1.414.224,2.12.072.665.14,1.332.219,2C86.8,241.742,137.1,212.431,196.073,186.648Z" transform="translate(-1.23)" fill="#5bdb70"/>
      <path id="Tracé_281" data-name="Tracé 281" d="M487.6,148.7c-7.551-18.536-40.577-24.682-88.094-19.692-49.373,5.184-114.394,22.393-182.78,50.254q-11.126,4.533-21.885,9.245C135.871,214.291,85.567,243.6,50.851,271.061c-37.463,29.631-56.784,57.1-49.234,75.633S42.2,371.352,89.692,366.372c-.093-.121-.182-.246-.275-.368-.412-.54-.815-1.086-1.221-1.63-.093-.125-.187-.248-.279-.373q-.845-1.139-1.669-2.292c-.464-.648-.933-1.294-1.389-1.949l-.223-.321a200.628,200.628,0,0,1-12.9-21.374h-.114c-14.846.035-24.365-2.833-26.856-8.948s2.3-14.816,12.947-25.166h0c20.157-19.6,61.311-45.11,113.787-70.2,17.868-8.543,37.042-17.036,57.154-25.23,79.171-32.255,151.262-51.1,188.951-51.2,14.854-.037,24.367,2.836,26.859,8.953s-2.309,14.814-12.948,25.16l-.048.048a193.818,193.818,0,0,1,6.873,32.85l.022-.018C475.8,194.7,495.151,167.229,487.6,148.7Z" transform="translate(0 -1.86)" fill="#11bb71"/>
    </g>
  </g>
</svg>
