<svg xmlns="http://www.w3.org/2000/svg" xmlns:xlink="http://www.w3.org/1999/xlink" width="512" height="512" viewBox="0 0 512 512">
  <defs>
    <clipPath id="clip-saturn">
      <rect width="512" height="512"/>
    </clipPath>
  </defs>
  <g id="saturn" clip-path="url(#clip-saturn)">
    <g id="saturn-2" data-name="saturn" transform="translate(20.95 20.196)">
      <circle id="Ellipse_6" data-name="Ellipse 6" cx="207.973" cy="207.973" r="207.973" transform="translate(27.417 33.605)" fill="#d8d9dd"/>
      <path id="Tracé_245" data-name="Tracé 245" d="M255.988,36.543c114.859,0,207.969,93.112,207.969,207.97S370.846,452.482,255.988,452.482Z" transform="translate(-20.593 -2.94)" fill="#b7b9c0"/>
      <circle id="Ellipse_7" data-name="Ellipse 7" cx="26.984" cy="26.984" r="26.984" transform="translate(286.494 118.927)" fill="#9b9da6"/>
      <g id="Groupe_4" data-name="Groupe 4" transform="translate(79.155 33.667)">
        <circle id="Ellipse_8" data-name="Ellipse 8" cx="26.984" cy="26.984" r="26.984" transform="translate(0 164.923)" fill="#b7b9c0"/>
        <path id="Tracé_246" data-name="Tracé 246" d="M179.724,121.871a64.021,64.021,0,0,0,60.365-85.258A206.98,206.98,0,0,0,119.256,78.862,64.019,64.019,0,0,0,179.724,121.871Z" transform="translate(-88.747 -36.613)" fill="#b7b9c0"/>
      </g>
      <path id="Tracé_247" data-name="Tracé 247" d="M444.552,256.213a86.225,86.225,0,0,0-42.189,161.42,207.445,207.445,0,0,0,69.829-155.445h0C472.192,261.7,454.217,256.213,444.552,256.213Z" transform="translate(-28.828 -20.615)" fill="#9b9da6"/>
      <path id="Tracé_248" data-name="Tracé 248" d="M249.454,335.4a44.861,44.861,0,1,0,15.1,33.567A44.711,44.711,0,0,0,249.454,335.4Z" transform="translate(-14.059 -26.076)" fill="#b7b9c0"/>
      <path id="Tracé_249" data-name="Tracé 249" d="M255.989,336.39v67.135a44.862,44.862,0,0,0,0-67.135Z" transform="translate(-20.593 -27.067)" fill="#9b9da6"/>
      <path id="Tracé_250" data-name="Tracé 250" d="M112.131,429.008c-59.1,39.873-78.288,37.948-81.233,37.276-1.648-5.258,2.16-28.19,35.056-77.728a207.745,207.745,0,0,1-17.341-29.078C2.085,426.055-10.843,468.191,9.112,488.146c6.052,6.051,14.206,9.081,24.374,9.081q11.257,0,25.767-4.957c17.387-5.949,38.86-17.274,63.821-33.663C157.19,436.209,195.8,405.722,235.4,370.1V328.4C192.228,368.854,149.433,403.843,112.131,429.008Z" transform="translate(0 -26.424)" fill="#61a2ef"/>
      <path id="Tracé_251" data-name="Tracé 251" d="M482.272,9.155c-18.047-18.046-49.935-4.6-60.414-.188-20.984,8.843-46.493,24.006-75.875,45.083a207.8,207.8,0,0,1,29.144,17.06c20.608-14.141,39.193-25.085,54.409-31.988,20.723-9.4,28.932-8.571,30.885-8.127.681,3.126,2.346,22.429-37.288,81.18C391.4,159.22,344.041,215,289.8,269.248Q272.943,286.1,255.987,301.98v41.7c18.409-16.561,37.032-34.229,55.521-52.716C369.77,232.7,419.924,173.092,452.734,123.118,469.123,98.156,480.45,76.683,486.4,59.3,494.181,36.545,492.792,19.676,482.272,9.155Z" transform="translate(-20.593 0)" fill="#528acf"/>
    </g>
  </g>
</svg>
