<svg xmlns="http://www.w3.org/2000/svg" xmlns:xlink="http://www.w3.org/1999/xlink" width="512" height="512" viewBox="0 0 512 512">
  <defs>
    <clipPath id="clip-nebula">
      <rect width="512" height="512"/>
    </clipPath>
  </defs>
  <g id="nebula" clip-path="url(#clip-nebula)">
    <g id="moon" transform="translate(0.028 0)">
      <path id="Tracé_223" data-name="Tracé 223" d="M488,256c0,128.13-103.87,232-232,232A232.017,232.017,0,1,1,324.83,34.38C419.35,63.71,488,151.84,488,256Z" fill="#aa85aa"/>
      <path id="Tracé_224" data-name="Tracé 224" d="M208,224c-26,24-16,40-16,40s4,14,24,32,41.6,17.342,59.6,39.342S298,364.527,296,390.527s-1.753,27.9-32,49.473-96.99,30.31-96.99,30.31C140.7,459.364,96,424.01,96,424.01S84,382,80,344s-8-38,0-72,14-40,32-64,14.745-26.6,33.625-35.309S174,174,192,160s20-16,32-40,15.712-32.51,16-56a54.948,54.948,0,0,0-14.85-37.96,233.668,233.668,0,0,1,99.68,8.34L328,72s-2,58-32,96S234,200,208,224Z" fill="#86658f"/>
      <g id="Groupe_2" data-name="Groupe 2">
        <path id="Tracé_225" data-name="Tracé 225" d="M406.166,346.663a19.387,19.387,0,0,1-9.768-2.553c-6-3.465-9.746-10.084-10.266-18.157a38.909,38.909,0,0,1,5.482-21.555c8.97-15.541,25.128-22.441,36.784-15.713s13.756,24.173,4.785,39.713a38.9,38.9,0,0,1-15.926,15.525,25.1,25.1,0,0,1-11.091,2.74Zm12.413-44.546c-3.427,0-9.068,3.281-13.109,10.281a23.159,23.159,0,0,0-3.371,12.526c.168,2.6,1.027,4.6,2.3,5.33s3.429.483,5.767-.673a23.162,23.162,0,0,0,9.162-9.183c4.882-8.459,3.9-16.226,1.071-17.857a3.625,3.625,0,0,0-1.82-.424Z" fill="#b897c1"/>
        <path id="Tracé_226" data-name="Tracé 226" d="M156.216,415.993a27.471,27.471,0,0,1-5.387-.547,38.913,38.913,0,0,1-19.4-10.875c-12.687-12.686-15.173-30.08-5.656-39.6s26.91-7.032,39.6,5.657a38.908,38.908,0,0,1,10.874,19.4c1.587,7.933-.315,15.294-5.218,20.2a20.565,20.565,0,0,1-14.813,5.765Zm-15.635-40.806a4.913,4.913,0,0,0-3.5,1.1c-2.306,2.307-1.249,10.065,5.657,16.97a23.155,23.155,0,0,0,11.225,6.5c2.558.514,4.706.2,5.745-.842s1.353-3.186.842-5.744a23.163,23.163,0,0,0-6.5-11.226C149.275,377.165,144.087,375.187,140.581,375.187Z" fill="#b897c1"/>
        <path id="Tracé_227" data-name="Tracé 227" d="M352,120c4-4,12-4,16,0s4,12,0,16-12,4-16,0S348,124,352,120Z" fill="#b897c1"/>
        <path id="Tracé_228" data-name="Tracé 228" d="M272,256c4-4,12-4,16,0s4,12,0,16-12,4-16,0S268,260,272,256Z" fill="#b897c1"/>
        <path id="Tracé_229" data-name="Tracé 229" d="M416,216c4-4,12-4,16,0s4,12,0,16-12,4-16,0S412,220,416,216Z" fill="#b897c1"/>
        <path id="Tracé_230" data-name="Tracé 230" d="M344,408c4-4,12-4,16,0s4,12,0,16-12,4-16,0S340,412,344,408Z" fill="#b897c1"/>
        <path id="Tracé_231" data-name="Tracé 231" d="M64,192c4-4,12-4,16,0s4,12,0,16-12,4-16,0S60,196,64,192Z" fill="#b897c1"/>
      </g>
      <path id="Tracé_232" data-name="Tracé 232" d="M176,56c2.392,8.635,0,12-8,24s-14,8-24,24-2,30-16,40-23.22,3.39-40,0a58.246,58.246,0,0,1-27.12-13.56,232.947,232.947,0,0,1,97.55-84.98S173.608,47.365,176,56Z" fill="#86658f"/>
    </g>
  </g>
</svg>
