<svg xmlns="http://www.w3.org/2000/svg" viewBox="0 0 512 512" width="512" height="512" fill="#fff">
  <path d="M488 16H24a8 8 0 00-8 8v464a8 8 0 008 8h464a8 8 0 008-8V24a8 8 0 00-8-8zM32 32h448v48H32zm0 448V96h448v384z"/>
  <circle cx="120" cy="56" r="8"/>
  <circle cx="88" cy="56" r="8"/>
  <circle cx="56" cy="56" r="8"/>
  <path d="M456 48h-16a8 8 0 000 16h16a8 8 0 000-16zM440 128H72a8 8 0 00-8 8v160a8 8 0 008 8h368a8 8 0 008-8V136a8 8 0 00-8-8zM123.314 288l30.613-30.613 35.1 14.041a8 8 0 008.628-1.771l43.363-43.363 66.542 44.362a8 8 0 007.409.772l35.5-14.2L386.374 288zM432 288h-21.04l-53.753-46.074a8 8 0 00-8.178-1.354l-36.093 14.437-68.5-45.665a8 8 0 00-10.095 1l-44.27 44.27-35.1-14.041a8 8 0 00-8.628 1.771L100.687 288H80V144h352zM72 352h96a8 8 0 000-16H72a8 8 0 000 16z"/>
  <path d="M312 224a24 24 0 10-24-24 24.027 24.027 0 0024 24zm0-32a8 8 0 11-8 8 8.009 8.009 0 018-8zM232 384H72a8 8 0 000 16h160a8 8 0 000-16zM232 432H72a8 8 0 000 16h160a8 8 0 000-16zM440 384H280a8 8 0 000 16h160a8 8 0 000-16zM440 432H280a8 8 0 000 16h160a8 8 0 000-16z"/>
</svg>
