<svg height="512" width="512" viewBox="0 0 512 512" xmlns="http://www.w3.org/2000/svg" fill="#fff">
  <path d="M426.874 0h-312.52C79.548 0 51.212 28.196 50.966 62.945H49.17c-15.137 0-27.452 12.315-27.452 27.452s12.315 27.452 27.452 27.452h1.784v27.898H49.17c-15.137 0-27.452 12.315-27.452 27.452s12.315 27.452 27.452 27.452h1.784v27.898H49.17c-15.137 0-27.452 12.315-27.452 27.452s12.315 27.452 27.452 27.452h1.784v27.898H49.17c-15.137 0-27.452 12.315-27.452 27.452s12.315 27.452 27.452 27.452h1.784v27.902h-1.788c-7.336 0-14.23 2.854-19.414 8.037-5.183 5.183-8.036 12.077-8.036 19.413 0 15.136 12.314 27.45 27.45 27.45h1.8C51.215 483.807 79.55 512 114.354 512h312.52c34.965 0 63.41-28.441 63.41-63.4V63.4c0-34.959-28.445-63.4-63.41-63.4zM36.718 90.397c0-6.866 5.586-12.452 12.452-12.452h50.547c6.866 0 12.452 5.586 12.452 12.452s-5.586 12.452-12.452 12.452H49.17c-6.866 0-12.452-5.586-12.452-12.452zm0 82.803c0-6.866 5.586-12.452 12.452-12.452h50.547c6.866 0 12.452 5.586 12.452 12.452s-5.586 12.452-12.452 12.452H49.17c-6.866 0-12.452-5.586-12.452-12.452zm0 82.802c0-6.866 5.586-12.452 12.452-12.452h50.547c6.866 0 12.452 5.586 12.452 12.452s-5.586 12.452-12.452 12.452H49.17c-6.866.001-12.452-5.585-12.452-12.452zm0 82.803c0-6.866 5.586-12.452 12.452-12.452h50.547c6.866 0 12.452 5.586 12.452 12.452s-5.586 12.452-12.452 12.452H49.17c-6.866.001-12.452-5.586-12.452-12.452zM475.284 448.6c0 26.688-21.717 48.4-48.41 48.4h-312.52c-26.534 0-48.14-21.464-48.389-47.94h16.97c4.143 0 7.5-3.358 7.5-7.5s-3.357-7.5-7.5-7.5h-33.77c-6.865 0-12.45-5.585-12.45-12.45 0-3.329 1.294-6.457 3.643-8.807a12.374 12.374 0 018.808-3.644h50.55c6.865 0 12.45 5.585 12.45 12.45 0 2.954-1.042 5.806-2.935 8.033a7.5 7.5 0 1011.429 9.714 27.427 27.427 0 006.505-17.747c0-15.136-12.314-27.45-27.45-27.45H65.954v-27.902h33.763c15.137 0 27.452-12.315 27.452-27.452s-12.315-27.452-27.452-27.452H65.954v-27.898h33.763c15.137 0 27.452-12.315 27.452-27.452s-12.315-27.452-27.452-27.452H65.954v-27.898h33.763c15.137 0 27.452-12.315 27.452-27.452s-12.315-27.452-27.452-27.452H65.954v-27.898h33.763c15.137 0 27.452-12.315 27.452-27.452s-12.315-27.452-27.452-27.452H65.966C66.212 36.467 87.819 15 114.354 15h312.52c26.693 0 48.41 21.712 48.41 48.4z"/>
  <path d="M425.646 78.239h-65.75c-4.143 0-7.5 3.358-7.5 7.5s3.357 7.5 7.5 7.5h65.75c4.143 0 7.5-3.358 7.5-7.5s-3.357-7.5-7.5-7.5zM158.283 93.239h171.613c4.143 0 7.5-3.358 7.5-7.5s-3.357-7.5-7.5-7.5H158.283a7.5 7.5 0 000 15zM425.646 163.369H158.283c-4.143 0-7.5 3.358-7.5 7.5s3.357 7.5 7.5 7.5h267.363c4.143 0 7.5-3.358 7.5-7.5s-3.357-7.5-7.5-7.5zM425.646 248.5H158.283c-4.143 0-7.5 3.358-7.5 7.5s3.357 7.5 7.5 7.5h267.363c4.143 0 7.5-3.358 7.5-7.5s-3.357-7.5-7.5-7.5zM425.646 333.631H158.283c-4.143 0-7.5 3.358-7.5 7.5s3.357 7.5 7.5 7.5h267.363c4.143 0 7.5-3.358 7.5-7.5s-3.357-7.5-7.5-7.5zM425.646 418.761H158.283c-4.143 0-7.5 3.358-7.5 7.5s3.357 7.5 7.5 7.5h267.363c4.143 0 7.5-3.358 7.5-7.5s-3.357-7.5-7.5-7.5z"/>
</svg>
