<svg xmlns="http://www.w3.org/2000/svg" viewBox="0 0 512 512" fill="#040417">
  <path d="M349.867 0H162.133c-23.553.028-42.639 19.114-42.667 42.667v426.667c.028 23.553 19.114 42.639 42.667 42.667h187.733c23.553-.028 42.639-19.114 42.667-42.667V42.667C392.506 19.114 373.419.028 349.867 0zM136.533 85.333h25.822l-25.822 25.824V85.333zm0 49.959l49.954-49.958h27.067l-77.021 77.025v-27.067zm0 51.2L237.688 85.333h27.067L136.533 213.558v-27.066zm0 51.2L288.888 85.333h30.821L136.533 268.508v-30.816zm238.934 231.641c-.015 14.132-11.468 25.585-25.6 25.6H162.133c-14.132-.015-25.585-11.468-25.6-25.6V409.6h238.933v59.733zm0-76.8h-26.845l26.845-26.843v26.843zm0-50.975l-50.979 50.975h-27.066l78.045-78.042v27.067zm0-51.2L273.288 392.533h-27.066l129.245-129.242v27.067zm0-51.2L222.088 392.533h-27.066l180.445-180.442v27.067zm0-51.2L170.888 392.533h-27.063l231.642-231.642v27.067zm0-51.2L136.533 375.692v-27.067l238.933-238.933v27.066zm0-51.2L136.533 324.492v-31.85L343.842 85.333h31.625v.225zm0-17.291H136.533v-25.6c.015-14.132 11.468-25.585 25.6-25.6h187.733c14.132.015 25.585 11.468 25.6 25.6v25.6z"/>
  <path d="M256 426.667c-14.138 0-25.6 11.462-25.6 25.6.015 14.132 11.468 25.585 25.6 25.6 14.138 0 25.6-11.462 25.6-25.6 0-14.139-11.462-25.6-25.6-25.6zm0 34.133a8.533 8.533 0 01-8.533-8.533 8.54 8.54 0 018.533-8.533 8.533 8.533 0 010 17.066zM229.717 39.425a8.845 8.845 0 00-1.792-2.817 14.455 14.455 0 00-1.279-1.025 6.338 6.338 0 00-1.538-.767 5.286 5.286 0 00-1.621-.517 8.523 8.523 0 00-7.68 2.308 8.964 8.964 0 00-2.475 6.059 8.452 8.452 0 008.533 8.533 8.463 8.463 0 006.059-2.475 9.991 9.991 0 001.792-2.817 8.024 8.024 0 00.001-6.482zM290.133 34.133H256c-4.713 0-8.533 3.82-8.533 8.533S251.287 51.2 256 51.2h34.133c4.713 0 8.533-3.82 8.533-8.533s-3.82-8.534-8.533-8.534z"/>
</svg>
