<svg xmlns="http://www.w3.org/2000/svg" viewBox="0 0 512 512" fill="#040417">
  <path d="M496 72h-76.995l-61.737-54.021v.006A7.964 7.964 0 00352 16h-32a8 8 0 00-8 8v32h-56a8.083 8.083 0 00-1 .062l-30.317 3.79a107.433 107.433 0 00-62.344 30.491L152 100.686 139.313 88l10.178-10.177A8.272 8.272 0 00152 72a8 8 0 00-5.472-7.585l-38.764-12.926a24.24 24.24 0 00.768-10.464 25 25 0 00-13.755-18.581l-11.2-5.6a8 8 0 00-9.235 1.5l-32 32a41.942 41.942 0 000 59.314l40 40 11.314-11.314L80 124.686V83.314l18.161-18.161L129.19 75.5l-6.847 6.847a8 8 0 000 11.314L140.686 112l-58.343 58.343a69.5 69.5 0 00-18.789 64.525l7.762 34.932-30.31 34.969A32 32 0 1079.81 339.5l53.847-53.847a8 8 0 002.188-7.226l-10.819-54.087L160 259.314v79.216a35.859 35.859 0 0013.522 28.137L240 419.845l-2.52 21.346a8.125 8.125 0 004.2 8.1 8.126 8.126 0 009.6-1.39l34.374-34.243a8 8 0 00.289-11.009l-25.238-28.042 14.172-14.172L288 371.68v20.029a8.276 8.276 0 003.9 7.162 8 8 0 009.756-1.214l32-32a8 8 0 00.364-10.925l-24.938-28.5 12.458-12.458A32.547 32.547 0 01344.9 304a31.6 31.6 0 0131.1 31.6c0 4.172-2.782 15.868-13.657 26.743l-108.4 108.4A31.4 31.4 0 01232 480h-.4a31.595 31.595 0 01-22.344-53.943l4.4-4.4-11.312-11.314-4.4 4.4A47.6 47.6 0 00231.6 496h.485a47.365 47.365 0 0033.172-13.943l108.4-108.4s10.81-11.9 13.065-16.285a96.261 96.261 0 008.907-85.152l-.791-2.107a31.911 31.911 0 009.162-5.129 32 32 0 0041.338-1.14l-10.676-11.918a15.993 15.993 0 01-23.91-2.957 8.293 8.293 0 00-4.8-3.465 8.007 8.007 0 00-8.615 3.333 15.994 15.994 0 01-26.62.075 8.013 8.013 0 00-6.614-3.652H364a8.1 8.1 0 00-6.711 3.649 15.864 15.864 0 01-14.451 7.051 16.2 16.2 0 01-14.8-14.914 15.879 15.879 0 014.218-11.91A16.555 16.555 0 01344.438 224h24.772a110.748 110.748 0 0189.443 176.15 23.963 23.963 0 00-26.443 26.977A228.223 228.223 0 01286.13 480v16a244.219 244.219 0 00153.609-54.368 23.983 23.983 0 0033.475-34.33 126.8 126.8 0 00-104-199.3h-24.59a32.791 32.791 0 00-23.844 9.978 31.731 31.731 0 00-8.715 24.07 31.986 31.986 0 0051.926 22.926 31.9 31.9 0 0014.274 6.51 102.7 102.7 0 017.222 40.054A47.714 47.714 0 00344.356 288a48.683 48.683 0 00-34.2 14.529l-11.634 11.634L280 292.994V233.94a89.941 89.941 0 00-26.343-63.6l-39.644-39.64 43.945-18.834 54.042-4.5V136a8 8 0 008 8h32a7.964 7.964 0 005.263-1.985v.006L419.005 88h77zM66.343 74.343A8 8 0 0064 80v28.686L53.657 98.343a25.969 25.969 0 010-36.686L81.58 33.734l6.6 3.3a8.31 8.31 0 012.159 13.307zM456 432a8 8 0 118-8 8.009 8.009 0 01-8 8zM328 32h16v24h-16zm-72 388.687V416a8 8 0 00-3-6.247l-69.479-55.58c-4.781-3.822-7.521-16.561-7.521-16.561l24-16V328a8 8 0 002.054 5.352l66.923 74.358zm-6.011-57.987L216 324.93v-41.617l10.091-10.09 4.439 35.482a39.89 39.89 0 0013.655 25.419L262.7 349.99zm67.062-3.061L304 372.687V368a8 8 0 00-2.794-6.074L254.6 321.977a23.932 23.932 0 01-8.19-15.251l-1.853-14.815L264 278.948V296a8 8 0 001.979 5.268zM264 259.719l-21.665 14.443-2.4-19.154a8 8 0 00-13.595-4.665l-24 24A8 8 0 00200 280v22.388l-24 16v-59.07l71.7-71.7A73.375 73.375 0 01264 233.94zm-8.664-163.691c-.857.071-58.487 24.619-58.487 24.619a8 8 0 00-2.506 13.01l9.256 9.256-10.754 21.509 14.31 7.156 8.37-16.739L236.686 176 168 244.686 142.81 219.5l11.72-3.907-5.06-15.178-19.309 6.436-12.5-12.5a8 8 0 00-13.5 7.226l15.16 75.8-52.978 52.966A8 8 0 0064 336a16 16 0 11-17.889-15.884 8 8 0 005.116-2.706l34.818-40.17a8 8 0 001.765-6.975L79.173 231.4a53.572 53.572 0 0114.484-49.74l80-80a91.362 91.362 0 0153.014-25.929L256.5 72h93a8.144 8.144 0 00.912.241A12 12 0 01348 96a11.867 11.867 0 01-8.8-3.874 8 8 0 00-6.539-2.542zM328 128v-21.972l2.49-.208a28.109 28.109 0 0013.51 5.867V128zm32-9.63v-9.077a27.983 27.983 0 000-50.575V41.63L403.852 80z"/>
  <path d="M349.414 437.523a195.8 195.8 0 01-21.132 5.917l3.44 15.626a211.988 211.988 0 0022.864-6.4zM371.2 446.207a211.242 211.242 0 0065.032-44.384 94.733 94.733 0 0012.772-118.148l-13.461 8.65a78.732 78.732 0 01-10.625 98.185 195.318 195.318 0 01-60.118 41.036z"/>
  <path d="M432 320v-8h-16v8a72.346 72.346 0 01-28.8 57.6l9.6 12.8A88.422 88.422 0 00432 320zM376 160a24 24 0 1024-24 24.027 24.027 0 00-24 24zm32 0a8 8 0 11-8-8 8.009 8.009 0 018 8zM464 156a12 12 0 10-12 12 12.013 12.013 0 0012-12zM312 188a12 12 0 1012-12 12.013 12.013 0 00-12 12zM460 216a12 12 0 10-12-12 12.013 12.013 0 0012 12z"/>
</svg>
