<svg height="512" viewBox="0 0 60 60" width="512" xmlns="http://www.w3.org/2000/svg" fill="#fff">
  <path d="M5 39.53v2.24l-4 3.29a2.8 2.8 0 003.57 4.31L5 49v1.54C2.13 52.35 1.09 53 1 53.06a2.802 2.802 0 003.52 4.36l2.78-1.69C10.06 58.35 14.92 60 20 60c8.55 0 15-4.3 15-10V39c24.79-15 23.77-14.41 23.87-14.49a3.11 3.11 0 00.22-4.6 3.08 3.08 0 00-4.09-.23L35 32c0-6.64 0-6.3-.14-7.12l24-19.39a3.11 3.11 0 00.23-4.57 3.08 3.08 0 00-4.18-.2L31 20.4c-.31-.17-.64-.34-1-.5V8c0-4.64-6.31-8-15-8S0 3.37 0 8v24c0 3 1.82 5.67 5 7.53zM12.61 21l2.18 2c-5.33 2.51-2.74 8 5.21 8a14.5 14.5 0 003.12-.33L25 32.41C11.69 35.68-.43 25.14 12.61 21zM20 29c-3.72 0-6-1.46-6-2.5s2.28-2.5 6-2.5 6 1.45 6 2.5-2.28 2.5-6 2.5zM3.31 47.82a.8.8 0 01-1-1.22L5 44.36v2.1zM7 30.41c3.58 3.72 11.49 5.85 19 3.81v3.37L7 49.34zm2.09 24.24L26 44.41v12.72c-6.13 1.92-13.33.53-16.91-2.48zM33 50c0 2.61-1.94 4.88-5 6.34V43.2l5-3zm23.19-28.74a1.102 1.102 0 011.45 1.66C-.82 58.31 3.11 56.06 2.68 56a.81.81 0 01-.44-1.37C58.57 19.8 56.09 21.35 56.19 21.26zM28 36.35v-2.79a13.83 13.83 0 005-3.15v2.85zm-.78-4.63l-1.95-1.78C30.53 27.41 27.91 22 20 22a14.49 14.49 0 00-3 .31l-2-1.86a27.61 27.61 0 015-.45c7.29 0 13 2.63 13 6 0 2.1-2.24 4.35-5.78 5.72zm29-29.46A1.11 1.11 0 1157.6 4L34 23a7.35 7.35 0 00-1.32-1.43zM9 20.41v-4.19c7.55 2.05 15.44-.11 19-3.81v6.73c-5.53-1.75-13.91-1.59-19 1.27zM28 8c0 3.3-5.56 7-13 7a20.78 20.78 0 01-5-.6l1.89-1.73A14.5 14.5 0 0015 13c8 0 10.47-5.49 5.21-8l2.18-2C25.8 4.11 28 5.92 28 8zm-7 .5c0 1-2.28 2.5-6 2.5S9 9.55 9 8.51 11.28 6 15 6s6 1.46 6 2.51zM15 2a27.61 27.61 0 015.06.45L18 4.32A14.49 14.49 0 0015 4C7 4 4.55 9.45 9.73 11.94l-1.95 1.78C4.24 12.35 2 10.1 2 8c0-3.36 5.71-6 13-6zM2 12.41a13.83 13.83 0 005 3.15v6.29A5.68 5.68 0 005 26v11.15A6.43 6.43 0 012 32z"/>
</svg>
