<svg xmlns="http://www.w3.org/2000/svg" viewBox="0 0 512 512" fill="#040417">
  <path d="M504.5 328.661c-22.118 0-33.314 4.332-44.142 8.521-9.982 3.862-19.412 7.511-38.729 7.511-19.318 0-28.747-3.648-38.73-7.511-10.827-4.189-22.023-8.521-44.142-8.521-22.105 0-33.294 4.333-44.115 8.522-9.975 3.862-19.397 7.51-38.699 7.51-19.31 0-28.735-3.648-38.713-7.51-10.824-4.19-22.016-8.522-44.127-8.522-22.104 0-33.293 4.333-44.114 8.522-9.975 3.862-19.396 7.51-38.698 7.51-19.296 0-28.715-3.648-38.687-7.51-10.818-4.19-22.004-8.522-44.104-8.522a7.5 7.5 0 000 15c19.296 0 28.714 3.648 38.687 7.51 10.818 4.19 22.004 8.522 44.104 8.522 22.104 0 33.293-4.333 44.114-8.522 9.975-3.862 19.396-7.51 38.698-7.51 19.309 0 28.734 3.648 38.712 7.51 10.824 4.19 22.017 8.522 44.128 8.522 22.105 0 33.294-4.333 44.115-8.522 9.975-3.862 19.397-7.51 38.699-7.51 19.317 0 28.747 3.648 38.729 7.511 10.828 4.189 22.024 8.521 44.143 8.521s33.314-4.332 44.142-8.521c9.982-3.862 19.412-7.511 38.729-7.511a7.5 7.5 0 000-15zM471.418 373.02a7.5 7.5 0 00-9.696-4.3l-1.367.528c-4.515 1.747-8.78 3.397-13.855 4.715a7.501 7.501 0 001.88 14.761 7.52 7.52 0 001.891-.243c5.912-1.536 10.784-3.421 15.497-5.245l1.349-.521a7.5 7.5 0 004.301-9.695zM416.593 376.67c-16.001-.577-24.595-3.902-33.694-7.423-10.828-4.189-22.024-8.521-44.142-8.521-22.105 0-33.294 4.333-44.115 8.522-9.975 3.862-19.397 7.51-38.699 7.51-19.31 0-28.734-3.648-38.713-7.511-10.824-4.189-22.016-8.522-44.127-8.522-22.104 0-33.293 4.333-44.114 8.522-9.077 3.515-17.651 6.834-33.587 7.419a7.5 7.5 0 10.55 14.99c18.454-.677 28.622-4.614 38.454-8.421 9.975-3.862 19.396-7.51 38.698-7.51 19.309 0 28.734 3.648 38.712 7.511 10.824 4.189 22.017 8.522 44.128 8.522 22.105 0 33.294-4.333 44.115-8.522 9.975-3.862 19.397-7.51 38.699-7.51 19.317 0 28.747 3.648 38.729 7.511 9.855 3.813 20.045 7.756 38.566 8.424 4.113.147 7.616-3.085 7.765-7.225a7.5 7.5 0 00-7.225-7.766zM338.757 392.791c-22.105 0-33.294 4.333-44.115 8.522-9.975 3.862-19.397 7.51-38.699 7.51-19.31 0-28.734-3.648-38.713-7.51-10.824-4.19-22.016-8.522-44.127-8.522a7.5 7.5 0 000 15c19.309 0 28.734 3.648 38.713 7.51 10.824 4.19 22.016 8.522 44.127 8.522 22.105 0 33.294-4.333 44.115-8.522 9.975-3.862 19.397-7.51 38.699-7.51a7.5 7.5 0 000-15zM65.511 373.981c-5.105-1.323-9.384-2.981-13.914-4.736a7.5 7.5 0 00-5.419 13.987c4.73 1.832 9.621 3.727 15.569 5.269a7.493 7.493 0 001.887.242 7.504 7.504 0 007.255-5.62 7.5 7.5 0 00-5.378-9.142zM354.282 227.687c-22.407-32.143-59.147-51.333-98.281-51.333-66.017 0-119.726 53.708-119.726 119.726-.001 2.849.1 5.724.3 8.545a7.5 7.5 0 0014.963-1.057 106.496 106.496 0 01-.263-7.488c0-57.746 46.979-104.726 104.726-104.726 34.231 0 66.372 16.789 85.975 44.911a7.501 7.501 0 0012.306-8.578zM103.694 288.581H55.597a7.5 7.5 0 000 15h48.097a7.5 7.5 0 000-15zM256 88.177a7.5 7.5 0 00-7.5 7.5v48.097a7.5 7.5 0 0015 0V95.677a7.5 7.5 0 00-7.5-7.5zM403.01 149.071a7.5 7.5 0 00-10.606 0l-34.01 34.01a7.5 7.5 0 005.303 12.803 7.474 7.474 0 005.303-2.197l34.01-34.01a7.5 7.5 0 000-10.606zM204.644 152.498l-6.135-14.812a7.5 7.5 0 00-13.858 5.74l6.135 14.812a7.503 7.503 0 006.932 4.632 7.5 7.5 0 006.926-10.372zM418.454 228.791a7.5 7.5 0 00-9.799-4.059l-14.812 6.135a7.503 7.503 0 002.873 14.431c.957 0 1.929-.184 2.867-.573l14.812-6.135a7.5 7.5 0 004.059-9.799zM323.29 133.627a7.5 7.5 0 00-9.799 4.059l-6.135 14.812a7.5 7.5 0 0013.858 5.74l6.135-14.812a7.5 7.5 0 00-4.059-9.799zM118.157 230.866l-14.812-6.135a7.5 7.5 0 10-5.74 13.858l14.812 6.135a7.475 7.475 0 002.867.573 7.503 7.503 0 002.873-14.431zM116.862 136.275c-11.078 0-21.775 3.692-30.589 10.481a41.215 41.215 0 00-12.354-1.893c-23.079 0-41.855 18.776-41.855 41.855a7.5 7.5 0 007.5 7.5h120.242a7.5 7.5 0 007.5-7.5c0-27.814-22.629-50.443-50.444-50.443zM48.13 179.217c3.253-11.169 13.583-19.354 25.789-19.354 3.695 0 7.331.778 10.807 2.313a7.5 7.5 0 008.129-1.362c6.634-6.152 15.161-9.54 24.008-9.54 16.971 0 31.194 11.99 34.646 27.943H48.13zM381.968 262.242c-4.201 0-8.339.635-12.354 1.893-8.814-6.789-19.512-10.481-30.589-10.481-27.815 0-50.444 22.629-50.444 50.443a7.5 7.5 0 007.5 7.5h120.242a7.5 7.5 0 007.5-7.5c0-23.079-18.776-41.855-41.855-41.855zm-77.589 34.355c3.451-15.953 17.675-27.943 34.646-27.943 8.847 0 17.373 3.388 24.008 9.54a7.502 7.502 0 008.128 1.361c3.476-1.535 7.112-2.313 10.807-2.313 12.206 0 22.536 8.185 25.79 19.355H304.379z"/>
</svg>
